ISO-10303-21;
HEADER;
/* Generated by software containing ST-Developer
 * from STEP Tools, Inc. (www.steptools.com) 
 */

FILE_DESCRIPTION(
/* description */ (''),
/* implementation_level */ '2;1');

FILE_NAME(
/* name */ 'flook32_pipe_clamp.step',
/* time_stamp */ '2026-06-01T09:44:40+03:00',
/* author */ (''),
/* organization */ (''),
/* preprocessor_version */ 'ST-DEVELOPER v20.1',
/* originating_system */ 'Autodesk Translation Framework v15.8.0.0',
/* authorisation */ '');

FILE_SCHEMA (('AUTOMOTIVE_DESIGN { 1 0 10303 214 3 1 1 }'));
ENDSEC;

DATA;
#10=MECHANICAL_DESIGN_GEOMETRIC_PRESENTATION_REPRESENTATION('',(#13,#14),
#1618);
#11=SHAPE_REPRESENTATION_RELATIONSHIP('SRR','None',#1625,#12);
#12=ADVANCED_BREP_SHAPE_REPRESENTATION('',(#15,#16),#1617);
#13=STYLED_ITEM('',(#1634),#15);
#14=STYLED_ITEM('',(#1634),#16);
#15=MANIFOLD_SOLID_BREP('Body3',#709);
#16=MANIFOLD_SOLID_BREP('Body5',#710);
#17=B_SPLINE_SURFACE_WITH_KNOTS('',3,3,((#1112,#1113,#1114,#1115,#1116,
#1117,#1118,#1119,#1120),(#1121,#1122,#1123,#1124,#1125,#1126,#1127,#1128,
#1129),(#1130,#1131,#1132,#1133,#1134,#1135,#1136,#1137,#1138),(#1139,#1140,
#1141,#1142,#1143,#1144,#1145,#1146,#1147),(#1148,#1149,#1150,#1151,#1152,
#1153,#1154,#1155,#1156),(#1157,#1158,#1159,#1160,#1161,#1162,#1163,#1164,
#1165)),.UNSPECIFIED.,.F.,.F.,.F.,(4,1,1,4),(4,1,1,1,2,4),(0.,0.285714285714286,
0.571428571428571,1.),(0.,0.00231989156359234,0.00463978312718469,0.00695967469077703,
0.0115994578179617,0.0117936961794317),.UNSPECIFIED.);
#18=B_SPLINE_SURFACE_WITH_KNOTS('',3,3,((#1187,#1188,#1189,#1190,#1191,
#1192,#1193,#1194,#1195),(#1196,#1197,#1198,#1199,#1200,#1201,#1202,#1203,
#1204),(#1205,#1206,#1207,#1208,#1209,#1210,#1211,#1212,#1213),(#1214,#1215,
#1216,#1217,#1218,#1219,#1220,#1221,#1222),(#1223,#1224,#1225,#1226,#1227,
#1228,#1229,#1230,#1231),(#1232,#1233,#1234,#1235,#1236,#1237,#1238,#1239,
#1240)),.UNSPECIFIED.,.F.,.F.,.F.,(4,1,1,4),(4,1,1,1,2,4),(0.,0.285714285714286,
0.571428571428571,1.),(-0.0111380011442435,-0.00891040091539479,-0.0044552004576974,
-0.0022276002288487,0.,0.000183458260616151),.UNSPECIFIED.);
#19=B_SPLINE_SURFACE_WITH_KNOTS('',3,3,((#1402,#1403,#1404,#1405,#1406,
#1407,#1408,#1409,#1410,#1411),(#1412,#1413,#1414,#1415,#1416,#1417,#1418,
#1419,#1420,#1421),(#1422,#1423,#1424,#1425,#1426,#1427,#1428,#1429,#1430,
#1431),(#1432,#1433,#1434,#1435,#1436,#1437,#1438,#1439,#1440,#1441),(#1442,
#1443,#1444,#1445,#1446,#1447,#1448,#1449,#1450,#1451),(#1452,#1453,#1454,
#1455,#1456,#1457,#1458,#1459,#1460,#1461)),.UNSPECIFIED.,.F.,.F.,.F.,(4,
1,1,4),(4,1,1,1,1,2,4),(0.,0.285714285714286,0.571428571428571,1.),(0.,
0.00116766527894596,0.00233533055789192,0.00700599167367577,0.00934132223156769,
0.0116766527894596,0.011872549657216),.UNSPECIFIED.);
#20=B_SPLINE_SURFACE_WITH_KNOTS('',3,3,((#1485,#1486,#1487,#1488,#1489,
#1490,#1491,#1492,#1493),(#1494,#1495,#1496,#1497,#1498,#1499,#1500,#1501,
#1502),(#1503,#1504,#1505,#1506,#1507,#1508,#1509,#1510,#1511),(#1512,#1513,
#1514,#1515,#1516,#1517,#1518,#1519,#1520),(#1521,#1522,#1523,#1524,#1525,
#1526,#1527,#1528,#1529),(#1530,#1531,#1532,#1533,#1534,#1535,#1536,#1537,
#1538)),.UNSPECIFIED.,.F.,.F.,.F.,(4,1,1,4),(4,1,1,1,2,4),(0.,0.285714285714286,
0.571428571428571,1.),(-0.0109684379317464,-0.00877475034539715,-0.00438737517269858,
-0.00219368758634929,0.,0.000179382212061634),.UNSPECIFIED.);
#21=PLANE('',#739);
#22=PLANE('',#746);
#23=PLANE('',#763);
#24=PLANE('',#766);
#25=PLANE('',#767);
#26=PLANE('',#783);
#27=PLANE('',#790);
#28=PLANE('',#807);
#29=PLANE('',#810);
#30=PLANE('',#811);
#31=TOROIDAL_SURFACE('',#726,1.30000000000002,0.3);
#32=TOROIDAL_SURFACE('',#730,4.4,0.3);
#33=TOROIDAL_SURFACE('',#734,1.30000000000003,0.3);
#34=TOROIDAL_SURFACE('',#750,5.3,0.4);
#35=TOROIDAL_SURFACE('',#754,7.1,0.4);
#36=TOROIDAL_SURFACE('',#770,1.30000000000002,0.3);
#37=TOROIDAL_SURFACE('',#774,5.05,0.3);
#38=TOROIDAL_SURFACE('',#778,1.30000000000003,0.3);
#39=TOROIDAL_SURFACE('',#794,6.15,0.4);
#40=TOROIDAL_SURFACE('',#798,7.6,0.4);
#41=FACE_OUTER_BOUND('',#87,.T.);
#42=FACE_OUTER_BOUND('',#88,.T.);
#43=FACE_OUTER_BOUND('',#89,.T.);
#44=FACE_OUTER_BOUND('',#90,.T.);
#45=FACE_OUTER_BOUND('',#91,.T.);
#46=FACE_OUTER_BOUND('',#92,.T.);
#47=FACE_OUTER_BOUND('',#93,.T.);
#48=FACE_OUTER_BOUND('',#94,.T.);
#49=FACE_OUTER_BOUND('',#95,.T.);
#50=FACE_OUTER_BOUND('',#96,.T.);
#51=FACE_OUTER_BOUND('',#97,.T.);
#52=FACE_OUTER_BOUND('',#98,.T.);
#53=FACE_OUTER_BOUND('',#99,.T.);
#54=FACE_OUTER_BOUND('',#100,.T.);
#55=FACE_OUTER_BOUND('',#101,.T.);
#56=FACE_OUTER_BOUND('',#102,.T.);
#57=FACE_OUTER_BOUND('',#103,.T.);
#58=FACE_OUTER_BOUND('',#104,.T.);
#59=FACE_OUTER_BOUND('',#105,.T.);
#60=FACE_OUTER_BOUND('',#106,.T.);
#61=FACE_OUTER_BOUND('',#107,.T.);
#62=FACE_OUTER_BOUND('',#108,.T.);
#63=FACE_OUTER_BOUND('',#109,.T.);
#64=FACE_OUTER_BOUND('',#110,.T.);
#65=FACE_OUTER_BOUND('',#111,.T.);
#66=FACE_OUTER_BOUND('',#112,.T.);
#67=FACE_OUTER_BOUND('',#113,.T.);
#68=FACE_OUTER_BOUND('',#114,.T.);
#69=FACE_OUTER_BOUND('',#115,.T.);
#70=FACE_OUTER_BOUND('',#116,.T.);
#71=FACE_OUTER_BOUND('',#117,.T.);
#72=FACE_OUTER_BOUND('',#118,.T.);
#73=FACE_OUTER_BOUND('',#119,.T.);
#74=FACE_OUTER_BOUND('',#120,.T.);
#75=FACE_OUTER_BOUND('',#121,.T.);
#76=FACE_OUTER_BOUND('',#122,.T.);
#77=FACE_OUTER_BOUND('',#123,.T.);
#78=FACE_OUTER_BOUND('',#124,.T.);
#79=FACE_OUTER_BOUND('',#125,.T.);
#80=FACE_OUTER_BOUND('',#126,.T.);
#81=FACE_OUTER_BOUND('',#127,.T.);
#82=FACE_OUTER_BOUND('',#128,.T.);
#83=FACE_OUTER_BOUND('',#129,.T.);
#84=FACE_OUTER_BOUND('',#130,.T.);
#85=FACE_OUTER_BOUND('',#131,.T.);
#86=FACE_OUTER_BOUND('',#132,.T.);
#87=EDGE_LOOP('',(#437,#438,#439,#440));
#88=EDGE_LOOP('',(#441,#442,#443,#444));
#89=EDGE_LOOP('',(#445,#446,#447,#448));
#90=EDGE_LOOP('',(#449,#450,#451,#452));
#91=EDGE_LOOP('',(#453,#454,#455,#456));
#92=EDGE_LOOP('',(#457,#458,#459,#460,#461,#462));
#93=EDGE_LOOP('',(#463,#464,#465,#466));
#94=EDGE_LOOP('',(#467,#468,#469,#470));
#95=EDGE_LOOP('',(#471,#472,#473,#474));
#96=EDGE_LOOP('',(#475,#476,#477,#478,#479,#480));
#97=EDGE_LOOP('',(#481,#482,#483));
#98=EDGE_LOOP('',(#484,#485,#486));
#99=EDGE_LOOP('',(#487,#488,#489,#490));
#100=EDGE_LOOP('',(#491,#492,#493,#494));
#101=EDGE_LOOP('',(#495,#496,#497,#498));
#102=EDGE_LOOP('',(#499,#500,#501,#502));
#103=EDGE_LOOP('',(#503,#504,#505,#506));
#104=EDGE_LOOP('',(#507,#508,#509,#510));
#105=EDGE_LOOP('',(#511,#512,#513,#514));
#106=EDGE_LOOP('',(#515,#516,#517,#518));
#107=EDGE_LOOP('',(#519,#520,#521,#522,#523,#524));
#108=EDGE_LOOP('',(#525,#526,#527,#528,#529,#530));
#109=EDGE_LOOP('',(#531,#532,#533,#534,#535,#536,#537,#538));
#110=EDGE_LOOP('',(#539,#540,#541,#542));
#111=EDGE_LOOP('',(#543,#544,#545,#546));
#112=EDGE_LOOP('',(#547,#548,#549,#550));
#113=EDGE_LOOP('',(#551,#552,#553,#554));
#114=EDGE_LOOP('',(#555,#556,#557,#558));
#115=EDGE_LOOP('',(#559,#560,#561,#562,#563,#564));
#116=EDGE_LOOP('',(#565,#566,#567,#568));
#117=EDGE_LOOP('',(#569,#570,#571,#572));
#118=EDGE_LOOP('',(#573,#574,#575,#576));
#119=EDGE_LOOP('',(#577,#578,#579,#580,#581,#582));
#120=EDGE_LOOP('',(#583,#584,#585));
#121=EDGE_LOOP('',(#586,#587,#588));
#122=EDGE_LOOP('',(#589,#590,#591,#592));
#123=EDGE_LOOP('',(#593,#594,#595,#596));
#124=EDGE_LOOP('',(#597,#598,#599,#600));
#125=EDGE_LOOP('',(#601,#602,#603,#604));
#126=EDGE_LOOP('',(#605,#606,#607,#608));
#127=EDGE_LOOP('',(#609,#610,#611,#612));
#128=EDGE_LOOP('',(#613,#614,#615,#616));
#129=EDGE_LOOP('',(#617,#618,#619,#620));
#130=EDGE_LOOP('',(#621,#622,#623,#624,#625,#626));
#131=EDGE_LOOP('',(#627,#628,#629,#630,#631,#632));
#132=EDGE_LOOP('',(#633,#634,#635,#636,#637,#638,#639,#640));
#133=B_SPLINE_CURVE_WITH_KNOTS('',3,(#1038,#1039,#1040,#1041,#1042,#1043,
#1044,#1045,#1046,#1047),.UNSPECIFIED.,.F.,.F.,(4,2,2,2,4),(0.106489338477417,
0.117612431934977,0.128735525392536,0.143705374496212,0.158675223599888),
 .UNSPECIFIED.);
#134=B_SPLINE_CURVE_WITH_KNOTS('',3,(#1070,#1071,#1072,#1073,#1074,#1075,
#1076,#1077,#1078,#1079),.UNSPECIFIED.,.F.,.F.,(4,2,2,2,4),(0.0509954459500392,
0.064656047088687,0.0783166482273347,0.0894903821249206,0.100664116022507),
 .UNSPECIFIED.);
#135=B_SPLINE_CURVE_WITH_KNOTS('',3,(#1167,#1168,#1169,#1170,#1171,#1172,
#1173,#1174,#1175),.UNSPECIFIED.,.F.,.F.,(4,1,1,1,2,4),(0.,0.00231989156359234,
0.00463978312718469,0.00695967469077703,0.0115994578179617,0.0117936961794317),
 .UNSPECIFIED.);
#136=B_SPLINE_CURVE_WITH_KNOTS('',3,(#1177,#1178,#1179,#1180,#1181,#1182,
#1183,#1184,#1185),.UNSPECIFIED.,.F.,.F.,(4,2,1,1,1,4),(-0.0117936961794317,
-0.0115994578179617,-0.00695967469077703,-0.00463978312718469,-0.00231989156359234,
0.),.UNSPECIFIED.);
#137=B_SPLINE_CURVE_WITH_KNOTS('',3,(#1243,#1244,#1245,#1246,#1247,#1248,
#1249,#1250,#1251),.UNSPECIFIED.,.F.,.F.,(4,1,1,1,2,4),(-0.0111380011442435,
-0.00891040091539479,-0.0044552004576974,-0.0022276002288487,0.,0.000183458260616151),
 .UNSPECIFIED.);
#138=B_SPLINE_CURVE_WITH_KNOTS('',3,(#1252,#1253,#1254,#1255,#1256,#1257,
#1258,#1259,#1260),.UNSPECIFIED.,.F.,.F.,(4,2,1,1,1,4),(-0.000183458260616151,
0.,0.0022276002288487,0.0044552004576974,0.00891040091539479,0.0111380011442435),
 .UNSPECIFIED.);
#139=B_SPLINE_CURVE_WITH_KNOTS('',3,(#1265,#1266,#1267,#1268,#1269,#1270,
#1271,#1272,#1273,#1274,#1275,#1276,#1277,#1278),.UNSPECIFIED.,.F.,.F.,
(4,2,2,2,2,2,4),(-0.0673836585251175,-0.067063297128258,-0.055979340894229,
-0.0450140668530871,-0.0283036589351576,-0.0136843889536212,0.),
 .UNSPECIFIED.);
#140=B_SPLINE_CURVE_WITH_KNOTS('',3,(#1282,#1283,#1284,#1285,#1286,#1287,
#1288,#1289,#1290,#1291,#1292,#1293,#1294,#1295),.UNSPECIFIED.,.F.,.F.,
(4,2,2,2,2,2,4),(-0.0003134189432365,0.,0.0103883861681539,0.0206935785425741,
0.0372826240420822,0.0521850912941668,0.0663110842391564),.UNSPECIFIED.);
#141=B_SPLINE_CURVE_WITH_KNOTS('',3,(#1324,#1325,#1326,#1327,#1328,#1329,
#1330,#1331,#1332,#1333),.UNSPECIFIED.,.F.,.F.,(4,2,2,2,4),(0.103296080240077,
0.114449599807006,0.125603119373936,0.139918486822107,0.154233854270278),
 .UNSPECIFIED.);
#142=B_SPLINE_CURVE_WITH_KNOTS('',3,(#1356,#1357,#1358,#1359,#1360,#1361,
#1362,#1363,#1364,#1365,#1366,#1367,#1368,#1369),.UNSPECIFIED.,.F.,.F.,
(4,2,2,2,2,2,4),(0.0485643196286314,0.0489649943577983,0.0594351410437519,
0.0691647932928909,0.0788944455420298,0.0876045839076865,0.0963147222733431),
 .UNSPECIFIED.);
#143=B_SPLINE_CURVE_WITH_KNOTS('',3,(#1463,#1464,#1465,#1466,#1467,#1468,
#1469,#1470,#1471,#1472),.UNSPECIFIED.,.F.,.F.,(4,1,1,1,1,2,4),(0.,0.00116766527894596,
0.00233533055789192,0.00700599167367577,0.00934132223156769,0.0116766527894596,
0.011872549657216),.UNSPECIFIED.);
#144=B_SPLINE_CURVE_WITH_KNOTS('',3,(#1474,#1475,#1476,#1477,#1478,#1479,
#1480,#1481,#1482,#1483),.UNSPECIFIED.,.F.,.F.,(4,2,1,1,1,1,4),(-0.011872549657216,
-0.0116766527894596,-0.00934132223156769,-0.00700599167367577,-0.00233533055789192,
-0.00116766527894596,0.),.UNSPECIFIED.);
#145=B_SPLINE_CURVE_WITH_KNOTS('',3,(#1541,#1542,#1543,#1544,#1545,#1546,
#1547,#1548,#1549),.UNSPECIFIED.,.F.,.F.,(4,1,1,1,2,4),(-0.0109684379317464,
-0.00877475034539715,-0.00438737517269858,-0.00219368758634929,0.,0.000179382212061634),
 .UNSPECIFIED.);
#146=B_SPLINE_CURVE_WITH_KNOTS('',3,(#1550,#1551,#1552,#1553,#1554,#1555,
#1556,#1557,#1558),.UNSPECIFIED.,.F.,.F.,(4,2,1,1,1,4),(-0.000179382212061634,
0.,0.00219368758634929,0.00438737517269858,0.00877475034539715,0.0109684379317464),
 .UNSPECIFIED.);
#147=B_SPLINE_CURVE_WITH_KNOTS('',3,(#1563,#1564,#1565,#1566,#1567,#1568,
#1569,#1570,#1571,#1572,#1573,#1574,#1575,#1576),.UNSPECIFIED.,.F.,.F.,
(4,2,2,2,2,2,4),(-0.0682997859256453,-0.0679716943531569,-0.0562061818356587,
-0.0446027591782225,-0.0277650396999809,-0.0133542426760981,0.),
 .UNSPECIFIED.);
#148=B_SPLINE_CURVE_WITH_KNOTS('',3,(#1581,#1582,#1583,#1584,#1585,#1586,
#1587,#1588,#1589,#1590,#1591,#1592,#1593,#1594),.UNSPECIFIED.,.F.,.F.,
(4,2,2,2,2,2,4),(-0.000316889589738639,0.,0.0106844694684529,0.0212686865803373,
0.0379326677329822,0.0527508856809569,0.0667310642916586),.UNSPECIFIED.);
#149=LINE('',#1036,#189);
#150=LINE('',#1048,#190);
#151=LINE('',#1080,#191);
#152=LINE('',#1081,#192);
#153=LINE('',#1084,#193);
#154=LINE('',#1086,#194);
#155=LINE('',#1088,#195);
#156=LINE('',#1090,#196);
#157=LINE('',#1091,#197);
#158=LINE('',#1094,#198);
#159=LINE('',#1098,#199);
#160=LINE('',#1102,#200);
#161=LINE('',#1106,#201);
#162=LINE('',#1108,#202);
#163=LINE('',#1110,#203);
#164=LINE('',#1111,#204);
#165=LINE('',#1264,#205);
#166=LINE('',#1298,#206);
#167=LINE('',#1304,#207);
#168=LINE('',#1308,#208);
#169=LINE('',#1322,#209);
#170=LINE('',#1334,#210);
#171=LINE('',#1370,#211);
#172=LINE('',#1371,#212);
#173=LINE('',#1374,#213);
#174=LINE('',#1376,#214);
#175=LINE('',#1378,#215);
#176=LINE('',#1380,#216);
#177=LINE('',#1381,#217);
#178=LINE('',#1384,#218);
#179=LINE('',#1388,#219);
#180=LINE('',#1392,#220);
#181=LINE('',#1396,#221);
#182=LINE('',#1398,#222);
#183=LINE('',#1400,#223);
#184=LINE('',#1401,#224);
#185=LINE('',#1562,#225);
#186=LINE('',#1596,#226);
#187=LINE('',#1602,#227);
#188=LINE('',#1606,#228);
#189=VECTOR('',#818,10.);
#190=VECTOR('',#819,10.);
#191=VECTOR('',#846,10.);
#192=VECTOR('',#847,10.);
#193=VECTOR('',#850,10.);
#194=VECTOR('',#851,10.);
#195=VECTOR('',#852,10.);
#196=VECTOR('',#853,10.);
#197=VECTOR('',#854,10.);
#198=VECTOR('',#857,10.);
#199=VECTOR('',#862,10.);
#200=VECTOR('',#867,10.);
#201=VECTOR('',#872,10.);
#202=VECTOR('',#873,10.);
#203=VECTOR('',#874,10.);
#204=VECTOR('',#875,10.);
#205=VECTOR('',#882,10.);
#206=VECTOR('',#891,10.);
#207=VECTOR('',#900,10.);
#208=VECTOR('',#905,10.);
#209=VECTOR('',#926,10.);
#210=VECTOR('',#927,10.);
#211=VECTOR('',#954,10.);
#212=VECTOR('',#955,10.);
#213=VECTOR('',#958,10.);
#214=VECTOR('',#959,10.);
#215=VECTOR('',#960,10.);
#216=VECTOR('',#961,10.);
#217=VECTOR('',#962,10.);
#218=VECTOR('',#965,10.);
#219=VECTOR('',#970,10.);
#220=VECTOR('',#975,10.);
#221=VECTOR('',#980,10.);
#222=VECTOR('',#981,10.);
#223=VECTOR('',#982,10.);
#224=VECTOR('',#983,10.);
#225=VECTOR('',#990,10.);
#226=VECTOR('',#999,10.);
#227=VECTOR('',#1008,10.);
#228=VECTOR('',#1013,10.);
#229=CIRCLE('',#725,0.300000000000002);
#230=CIRCLE('',#727,0.299999999999998);
#231=CIRCLE('',#728,1.30000000000002);
#232=CIRCLE('',#729,1.60000000000002);
#233=CIRCLE('',#731,0.300000000000004);
#234=CIRCLE('',#732,4.4);
#235=CIRCLE('',#733,4.1);
#236=CIRCLE('',#735,0.299999999999994);
#237=CIRCLE('',#736,1.30000000000003);
#238=CIRCLE('',#737,1.60000000000003);
#239=CIRCLE('',#741,1.60000000000003);
#240=CIRCLE('',#743,4.1);
#241=CIRCLE('',#745,1.60000000000002);
#242=CIRCLE('',#747,0.349999999999782);
#243=CIRCLE('',#748,0.35000000000001);
#244=CIRCLE('',#751,5.3);
#245=CIRCLE('',#752,4.9);
#246=CIRCLE('',#755,7.1);
#247=CIRCLE('',#756,7.5);
#248=CIRCLE('',#758,0.349999999999783);
#249=CIRCLE('',#760,7.5);
#250=CIRCLE('',#762,0.35000000000001);
#251=CIRCLE('',#765,4.9);
#252=CIRCLE('',#769,0.299999999999998);
#253=CIRCLE('',#771,0.299999999999997);
#254=CIRCLE('',#772,1.30000000000002);
#255=CIRCLE('',#773,1.60000000000002);
#256=CIRCLE('',#775,0.3);
#257=CIRCLE('',#776,5.05);
#258=CIRCLE('',#777,4.75);
#259=CIRCLE('',#779,0.299999999999996);
#260=CIRCLE('',#780,1.30000000000003);
#261=CIRCLE('',#781,1.60000000000003);
#262=CIRCLE('',#785,1.60000000000003);
#263=CIRCLE('',#787,4.75);
#264=CIRCLE('',#789,1.60000000000002);
#265=CIRCLE('',#791,0.349999999999803);
#266=CIRCLE('',#792,0.35000000000001);
#267=CIRCLE('',#795,5.75);
#268=CIRCLE('',#796,6.15);
#269=CIRCLE('',#799,7.6);
#270=CIRCLE('',#800,8.);
#271=CIRCLE('',#802,0.349999999999803);
#272=CIRCLE('',#804,8.);
#273=CIRCLE('',#806,0.35000000000001);
#274=CIRCLE('',#809,5.75);
#275=VERTEX_POINT('',#1032);
#276=VERTEX_POINT('',#1033);
#277=VERTEX_POINT('',#1035);
#278=VERTEX_POINT('',#1037);
#279=VERTEX_POINT('',#1050);
#280=VERTEX_POINT('',#1051);
#281=VERTEX_POINT('',#1056);
#282=VERTEX_POINT('',#1057);
#283=VERTEX_POINT('',#1062);
#284=VERTEX_POINT('',#1063);
#285=VERTEX_POINT('',#1068);
#286=VERTEX_POINT('',#1069);
#287=VERTEX_POINT('',#1083);
#288=VERTEX_POINT('',#1085);
#289=VERTEX_POINT('',#1087);
#290=VERTEX_POINT('',#1089);
#291=VERTEX_POINT('',#1093);
#292=VERTEX_POINT('',#1097);
#293=VERTEX_POINT('',#1101);
#294=VERTEX_POINT('',#1105);
#295=VERTEX_POINT('',#1107);
#296=VERTEX_POINT('',#1109);
#297=VERTEX_POINT('',#1166);
#298=VERTEX_POINT('',#1176);
#299=VERTEX_POINT('',#1241);
#300=VERTEX_POINT('',#1242);
#301=VERTEX_POINT('',#1263);
#302=VERTEX_POINT('',#1280);
#303=VERTEX_POINT('',#1303);
#304=VERTEX_POINT('',#1307);
#305=VERTEX_POINT('',#1318);
#306=VERTEX_POINT('',#1319);
#307=VERTEX_POINT('',#1321);
#308=VERTEX_POINT('',#1323);
#309=VERTEX_POINT('',#1336);
#310=VERTEX_POINT('',#1337);
#311=VERTEX_POINT('',#1342);
#312=VERTEX_POINT('',#1343);
#313=VERTEX_POINT('',#1348);
#314=VERTEX_POINT('',#1349);
#315=VERTEX_POINT('',#1354);
#316=VERTEX_POINT('',#1355);
#317=VERTEX_POINT('',#1373);
#318=VERTEX_POINT('',#1375);
#319=VERTEX_POINT('',#1377);
#320=VERTEX_POINT('',#1379);
#321=VERTEX_POINT('',#1383);
#322=VERTEX_POINT('',#1387);
#323=VERTEX_POINT('',#1391);
#324=VERTEX_POINT('',#1395);
#325=VERTEX_POINT('',#1397);
#326=VERTEX_POINT('',#1399);
#327=VERTEX_POINT('',#1462);
#328=VERTEX_POINT('',#1473);
#329=VERTEX_POINT('',#1539);
#330=VERTEX_POINT('',#1540);
#331=VERTEX_POINT('',#1561);
#332=VERTEX_POINT('',#1579);
#333=VERTEX_POINT('',#1601);
#334=VERTEX_POINT('',#1605);
#335=EDGE_CURVE('',#275,#276,#229,.T.);
#336=EDGE_CURVE('',#276,#277,#149,.T.);
#337=EDGE_CURVE('',#277,#278,#133,.F.);
#338=EDGE_CURVE('',#278,#275,#150,.T.);
#339=EDGE_CURVE('',#279,#280,#230,.T.);
#340=EDGE_CURVE('',#280,#276,#231,.T.);
#341=EDGE_CURVE('',#275,#279,#232,.T.);
#342=EDGE_CURVE('',#281,#282,#233,.T.);
#343=EDGE_CURVE('',#282,#280,#234,.T.);
#344=EDGE_CURVE('',#279,#281,#235,.T.);
#345=EDGE_CURVE('',#283,#284,#236,.T.);
#346=EDGE_CURVE('',#284,#282,#237,.T.);
#347=EDGE_CURVE('',#281,#283,#238,.T.);
#348=EDGE_CURVE('',#285,#286,#134,.F.);
#349=EDGE_CURVE('',#286,#284,#151,.T.);
#350=EDGE_CURVE('',#283,#285,#152,.T.);
#351=EDGE_CURVE('',#285,#287,#153,.T.);
#352=EDGE_CURVE('',#288,#283,#154,.T.);
#353=EDGE_CURVE('',#288,#289,#155,.T.);
#354=EDGE_CURVE('',#289,#290,#156,.T.);
#355=EDGE_CURVE('',#287,#290,#157,.T.);
#356=EDGE_CURVE('',#291,#281,#158,.T.);
#357=EDGE_CURVE('',#291,#288,#239,.T.);
#358=EDGE_CURVE('',#292,#279,#159,.T.);
#359=EDGE_CURVE('',#291,#292,#240,.T.);
#360=EDGE_CURVE('',#293,#275,#160,.T.);
#361=EDGE_CURVE('',#293,#292,#241,.T.);
#362=EDGE_CURVE('',#278,#294,#161,.T.);
#363=EDGE_CURVE('',#295,#294,#162,.T.);
#364=EDGE_CURVE('',#296,#295,#163,.T.);
#365=EDGE_CURVE('',#293,#296,#164,.T.);
#366=EDGE_CURVE('',#295,#297,#135,.T.);
#367=EDGE_CURVE('',#297,#298,#136,.T.);
#368=EDGE_CURVE('',#298,#295,#242,.T.);
#369=EDGE_CURVE('',#299,#300,#137,.T.);
#370=EDGE_CURVE('',#300,#290,#138,.T.);
#371=EDGE_CURVE('',#290,#299,#243,.T.);
#372=EDGE_CURVE('',#300,#301,#165,.T.);
#373=EDGE_CURVE('',#301,#287,#139,.T.);
#374=EDGE_CURVE('',#301,#302,#244,.T.);
#375=EDGE_CURVE('',#302,#294,#140,.T.);
#376=EDGE_CURVE('',#294,#287,#245,.T.);
#377=EDGE_CURVE('',#302,#297,#166,.T.);
#378=EDGE_CURVE('',#297,#300,#246,.T.);
#379=EDGE_CURVE('',#299,#298,#247,.T.);
#380=EDGE_CURVE('',#303,#298,#167,.T.);
#381=EDGE_CURVE('',#303,#296,#248,.T.);
#382=EDGE_CURVE('',#304,#299,#168,.T.);
#383=EDGE_CURVE('',#304,#303,#249,.T.);
#384=EDGE_CURVE('',#289,#304,#250,.T.);
#385=EDGE_CURVE('',#286,#277,#251,.T.);
#386=EDGE_CURVE('',#305,#306,#252,.T.);
#387=EDGE_CURVE('',#306,#307,#169,.T.);
#388=EDGE_CURVE('',#307,#308,#141,.F.);
#389=EDGE_CURVE('',#308,#305,#170,.T.);
#390=EDGE_CURVE('',#309,#310,#253,.T.);
#391=EDGE_CURVE('',#310,#306,#254,.T.);
#392=EDGE_CURVE('',#305,#309,#255,.T.);
#393=EDGE_CURVE('',#311,#312,#256,.T.);
#394=EDGE_CURVE('',#312,#310,#257,.T.);
#395=EDGE_CURVE('',#309,#311,#258,.T.);
#396=EDGE_CURVE('',#313,#314,#259,.T.);
#397=EDGE_CURVE('',#314,#312,#260,.T.);
#398=EDGE_CURVE('',#311,#313,#261,.T.);
#399=EDGE_CURVE('',#315,#316,#142,.F.);
#400=EDGE_CURVE('',#316,#314,#171,.T.);
#401=EDGE_CURVE('',#313,#315,#172,.T.);
#402=EDGE_CURVE('',#315,#317,#173,.T.);
#403=EDGE_CURVE('',#318,#313,#174,.T.);
#404=EDGE_CURVE('',#318,#319,#175,.T.);
#405=EDGE_CURVE('',#319,#320,#176,.T.);
#406=EDGE_CURVE('',#317,#320,#177,.T.);
#407=EDGE_CURVE('',#321,#311,#178,.T.);
#408=EDGE_CURVE('',#321,#318,#262,.T.);
#409=EDGE_CURVE('',#322,#309,#179,.T.);
#410=EDGE_CURVE('',#321,#322,#263,.T.);
#411=EDGE_CURVE('',#323,#305,#180,.T.);
#412=EDGE_CURVE('',#323,#322,#264,.T.);
#413=EDGE_CURVE('',#308,#324,#181,.T.);
#414=EDGE_CURVE('',#325,#324,#182,.T.);
#415=EDGE_CURVE('',#326,#325,#183,.T.);
#416=EDGE_CURVE('',#323,#326,#184,.T.);
#417=EDGE_CURVE('',#325,#327,#143,.T.);
#418=EDGE_CURVE('',#327,#328,#144,.T.);
#419=EDGE_CURVE('',#328,#325,#265,.T.);
#420=EDGE_CURVE('',#329,#330,#145,.T.);
#421=EDGE_CURVE('',#330,#320,#146,.T.);
#422=EDGE_CURVE('',#320,#329,#266,.T.);
#423=EDGE_CURVE('',#330,#331,#185,.T.);
#424=EDGE_CURVE('',#331,#317,#147,.T.);
#425=EDGE_CURVE('',#324,#317,#267,.T.);
#426=EDGE_CURVE('',#331,#332,#268,.T.);
#427=EDGE_CURVE('',#332,#324,#148,.T.);
#428=EDGE_CURVE('',#332,#327,#186,.T.);
#429=EDGE_CURVE('',#327,#330,#269,.T.);
#430=EDGE_CURVE('',#329,#328,#270,.T.);
#431=EDGE_CURVE('',#333,#328,#187,.T.);
#432=EDGE_CURVE('',#333,#326,#271,.T.);
#433=EDGE_CURVE('',#334,#329,#188,.T.);
#434=EDGE_CURVE('',#334,#333,#272,.T.);
#435=EDGE_CURVE('',#319,#334,#273,.T.);
#436=EDGE_CURVE('',#316,#307,#274,.T.);
#437=ORIENTED_EDGE('',*,*,#335,.T.);
#438=ORIENTED_EDGE('',*,*,#336,.T.);
#439=ORIENTED_EDGE('',*,*,#337,.T.);
#440=ORIENTED_EDGE('',*,*,#338,.T.);
#441=ORIENTED_EDGE('',*,*,#339,.T.);
#442=ORIENTED_EDGE('',*,*,#340,.T.);
#443=ORIENTED_EDGE('',*,*,#335,.F.);
#444=ORIENTED_EDGE('',*,*,#341,.T.);
#445=ORIENTED_EDGE('',*,*,#342,.T.);
#446=ORIENTED_EDGE('',*,*,#343,.T.);
#447=ORIENTED_EDGE('',*,*,#339,.F.);
#448=ORIENTED_EDGE('',*,*,#344,.T.);
#449=ORIENTED_EDGE('',*,*,#345,.T.);
#450=ORIENTED_EDGE('',*,*,#346,.T.);
#451=ORIENTED_EDGE('',*,*,#342,.F.);
#452=ORIENTED_EDGE('',*,*,#347,.T.);
#453=ORIENTED_EDGE('',*,*,#348,.T.);
#454=ORIENTED_EDGE('',*,*,#349,.T.);
#455=ORIENTED_EDGE('',*,*,#345,.F.);
#456=ORIENTED_EDGE('',*,*,#350,.T.);
#457=ORIENTED_EDGE('',*,*,#351,.F.);
#458=ORIENTED_EDGE('',*,*,#350,.F.);
#459=ORIENTED_EDGE('',*,*,#352,.F.);
#460=ORIENTED_EDGE('',*,*,#353,.T.);
#461=ORIENTED_EDGE('',*,*,#354,.T.);
#462=ORIENTED_EDGE('',*,*,#355,.F.);
#463=ORIENTED_EDGE('',*,*,#347,.F.);
#464=ORIENTED_EDGE('',*,*,#356,.F.);
#465=ORIENTED_EDGE('',*,*,#357,.T.);
#466=ORIENTED_EDGE('',*,*,#352,.T.);
#467=ORIENTED_EDGE('',*,*,#344,.F.);
#468=ORIENTED_EDGE('',*,*,#358,.F.);
#469=ORIENTED_EDGE('',*,*,#359,.F.);
#470=ORIENTED_EDGE('',*,*,#356,.T.);
#471=ORIENTED_EDGE('',*,*,#341,.F.);
#472=ORIENTED_EDGE('',*,*,#360,.F.);
#473=ORIENTED_EDGE('',*,*,#361,.T.);
#474=ORIENTED_EDGE('',*,*,#358,.T.);
#475=ORIENTED_EDGE('',*,*,#338,.F.);
#476=ORIENTED_EDGE('',*,*,#362,.T.);
#477=ORIENTED_EDGE('',*,*,#363,.F.);
#478=ORIENTED_EDGE('',*,*,#364,.F.);
#479=ORIENTED_EDGE('',*,*,#365,.F.);
#480=ORIENTED_EDGE('',*,*,#360,.T.);
#481=ORIENTED_EDGE('',*,*,#366,.T.);
#482=ORIENTED_EDGE('',*,*,#367,.T.);
#483=ORIENTED_EDGE('',*,*,#368,.T.);
#484=ORIENTED_EDGE('',*,*,#369,.T.);
#485=ORIENTED_EDGE('',*,*,#370,.T.);
#486=ORIENTED_EDGE('',*,*,#371,.T.);
#487=ORIENTED_EDGE('',*,*,#370,.F.);
#488=ORIENTED_EDGE('',*,*,#372,.T.);
#489=ORIENTED_EDGE('',*,*,#373,.T.);
#490=ORIENTED_EDGE('',*,*,#355,.T.);
#491=ORIENTED_EDGE('',*,*,#374,.T.);
#492=ORIENTED_EDGE('',*,*,#375,.T.);
#493=ORIENTED_EDGE('',*,*,#376,.T.);
#494=ORIENTED_EDGE('',*,*,#373,.F.);
#495=ORIENTED_EDGE('',*,*,#366,.F.);
#496=ORIENTED_EDGE('',*,*,#363,.T.);
#497=ORIENTED_EDGE('',*,*,#375,.F.);
#498=ORIENTED_EDGE('',*,*,#377,.T.);
#499=ORIENTED_EDGE('',*,*,#367,.F.);
#500=ORIENTED_EDGE('',*,*,#378,.T.);
#501=ORIENTED_EDGE('',*,*,#369,.F.);
#502=ORIENTED_EDGE('',*,*,#379,.T.);
#503=ORIENTED_EDGE('',*,*,#368,.F.);
#504=ORIENTED_EDGE('',*,*,#380,.F.);
#505=ORIENTED_EDGE('',*,*,#381,.T.);
#506=ORIENTED_EDGE('',*,*,#364,.T.);
#507=ORIENTED_EDGE('',*,*,#379,.F.);
#508=ORIENTED_EDGE('',*,*,#382,.F.);
#509=ORIENTED_EDGE('',*,*,#383,.T.);
#510=ORIENTED_EDGE('',*,*,#380,.T.);
#511=ORIENTED_EDGE('',*,*,#371,.F.);
#512=ORIENTED_EDGE('',*,*,#354,.F.);
#513=ORIENTED_EDGE('',*,*,#384,.T.);
#514=ORIENTED_EDGE('',*,*,#382,.T.);
#515=ORIENTED_EDGE('',*,*,#372,.F.);
#516=ORIENTED_EDGE('',*,*,#378,.F.);
#517=ORIENTED_EDGE('',*,*,#377,.F.);
#518=ORIENTED_EDGE('',*,*,#374,.F.);
#519=ORIENTED_EDGE('',*,*,#376,.F.);
#520=ORIENTED_EDGE('',*,*,#362,.F.);
#521=ORIENTED_EDGE('',*,*,#337,.F.);
#522=ORIENTED_EDGE('',*,*,#385,.F.);
#523=ORIENTED_EDGE('',*,*,#348,.F.);
#524=ORIENTED_EDGE('',*,*,#351,.T.);
#525=ORIENTED_EDGE('',*,*,#349,.F.);
#526=ORIENTED_EDGE('',*,*,#385,.T.);
#527=ORIENTED_EDGE('',*,*,#336,.F.);
#528=ORIENTED_EDGE('',*,*,#340,.F.);
#529=ORIENTED_EDGE('',*,*,#343,.F.);
#530=ORIENTED_EDGE('',*,*,#346,.F.);
#531=ORIENTED_EDGE('',*,*,#357,.F.);
#532=ORIENTED_EDGE('',*,*,#359,.T.);
#533=ORIENTED_EDGE('',*,*,#361,.F.);
#534=ORIENTED_EDGE('',*,*,#365,.T.);
#535=ORIENTED_EDGE('',*,*,#381,.F.);
#536=ORIENTED_EDGE('',*,*,#383,.F.);
#537=ORIENTED_EDGE('',*,*,#384,.F.);
#538=ORIENTED_EDGE('',*,*,#353,.F.);
#539=ORIENTED_EDGE('',*,*,#386,.T.);
#540=ORIENTED_EDGE('',*,*,#387,.T.);
#541=ORIENTED_EDGE('',*,*,#388,.T.);
#542=ORIENTED_EDGE('',*,*,#389,.T.);
#543=ORIENTED_EDGE('',*,*,#390,.T.);
#544=ORIENTED_EDGE('',*,*,#391,.T.);
#545=ORIENTED_EDGE('',*,*,#386,.F.);
#546=ORIENTED_EDGE('',*,*,#392,.T.);
#547=ORIENTED_EDGE('',*,*,#393,.T.);
#548=ORIENTED_EDGE('',*,*,#394,.T.);
#549=ORIENTED_EDGE('',*,*,#390,.F.);
#550=ORIENTED_EDGE('',*,*,#395,.T.);
#551=ORIENTED_EDGE('',*,*,#396,.T.);
#552=ORIENTED_EDGE('',*,*,#397,.T.);
#553=ORIENTED_EDGE('',*,*,#393,.F.);
#554=ORIENTED_EDGE('',*,*,#398,.T.);
#555=ORIENTED_EDGE('',*,*,#399,.T.);
#556=ORIENTED_EDGE('',*,*,#400,.T.);
#557=ORIENTED_EDGE('',*,*,#396,.F.);
#558=ORIENTED_EDGE('',*,*,#401,.T.);
#559=ORIENTED_EDGE('',*,*,#402,.F.);
#560=ORIENTED_EDGE('',*,*,#401,.F.);
#561=ORIENTED_EDGE('',*,*,#403,.F.);
#562=ORIENTED_EDGE('',*,*,#404,.T.);
#563=ORIENTED_EDGE('',*,*,#405,.T.);
#564=ORIENTED_EDGE('',*,*,#406,.F.);
#565=ORIENTED_EDGE('',*,*,#398,.F.);
#566=ORIENTED_EDGE('',*,*,#407,.F.);
#567=ORIENTED_EDGE('',*,*,#408,.T.);
#568=ORIENTED_EDGE('',*,*,#403,.T.);
#569=ORIENTED_EDGE('',*,*,#395,.F.);
#570=ORIENTED_EDGE('',*,*,#409,.F.);
#571=ORIENTED_EDGE('',*,*,#410,.F.);
#572=ORIENTED_EDGE('',*,*,#407,.T.);
#573=ORIENTED_EDGE('',*,*,#392,.F.);
#574=ORIENTED_EDGE('',*,*,#411,.F.);
#575=ORIENTED_EDGE('',*,*,#412,.T.);
#576=ORIENTED_EDGE('',*,*,#409,.T.);
#577=ORIENTED_EDGE('',*,*,#389,.F.);
#578=ORIENTED_EDGE('',*,*,#413,.T.);
#579=ORIENTED_EDGE('',*,*,#414,.F.);
#580=ORIENTED_EDGE('',*,*,#415,.F.);
#581=ORIENTED_EDGE('',*,*,#416,.F.);
#582=ORIENTED_EDGE('',*,*,#411,.T.);
#583=ORIENTED_EDGE('',*,*,#417,.T.);
#584=ORIENTED_EDGE('',*,*,#418,.T.);
#585=ORIENTED_EDGE('',*,*,#419,.T.);
#586=ORIENTED_EDGE('',*,*,#420,.T.);
#587=ORIENTED_EDGE('',*,*,#421,.T.);
#588=ORIENTED_EDGE('',*,*,#422,.T.);
#589=ORIENTED_EDGE('',*,*,#421,.F.);
#590=ORIENTED_EDGE('',*,*,#423,.T.);
#591=ORIENTED_EDGE('',*,*,#424,.T.);
#592=ORIENTED_EDGE('',*,*,#406,.T.);
#593=ORIENTED_EDGE('',*,*,#425,.T.);
#594=ORIENTED_EDGE('',*,*,#424,.F.);
#595=ORIENTED_EDGE('',*,*,#426,.T.);
#596=ORIENTED_EDGE('',*,*,#427,.T.);
#597=ORIENTED_EDGE('',*,*,#417,.F.);
#598=ORIENTED_EDGE('',*,*,#414,.T.);
#599=ORIENTED_EDGE('',*,*,#427,.F.);
#600=ORIENTED_EDGE('',*,*,#428,.T.);
#601=ORIENTED_EDGE('',*,*,#418,.F.);
#602=ORIENTED_EDGE('',*,*,#429,.T.);
#603=ORIENTED_EDGE('',*,*,#420,.F.);
#604=ORIENTED_EDGE('',*,*,#430,.T.);
#605=ORIENTED_EDGE('',*,*,#419,.F.);
#606=ORIENTED_EDGE('',*,*,#431,.F.);
#607=ORIENTED_EDGE('',*,*,#432,.T.);
#608=ORIENTED_EDGE('',*,*,#415,.T.);
#609=ORIENTED_EDGE('',*,*,#430,.F.);
#610=ORIENTED_EDGE('',*,*,#433,.F.);
#611=ORIENTED_EDGE('',*,*,#434,.T.);
#612=ORIENTED_EDGE('',*,*,#431,.T.);
#613=ORIENTED_EDGE('',*,*,#422,.F.);
#614=ORIENTED_EDGE('',*,*,#405,.F.);
#615=ORIENTED_EDGE('',*,*,#435,.T.);
#616=ORIENTED_EDGE('',*,*,#433,.T.);
#617=ORIENTED_EDGE('',*,*,#423,.F.);
#618=ORIENTED_EDGE('',*,*,#429,.F.);
#619=ORIENTED_EDGE('',*,*,#428,.F.);
#620=ORIENTED_EDGE('',*,*,#426,.F.);
#621=ORIENTED_EDGE('',*,*,#425,.F.);
#622=ORIENTED_EDGE('',*,*,#413,.F.);
#623=ORIENTED_EDGE('',*,*,#388,.F.);
#624=ORIENTED_EDGE('',*,*,#436,.F.);
#625=ORIENTED_EDGE('',*,*,#399,.F.);
#626=ORIENTED_EDGE('',*,*,#402,.T.);
#627=ORIENTED_EDGE('',*,*,#400,.F.);
#628=ORIENTED_EDGE('',*,*,#436,.T.);
#629=ORIENTED_EDGE('',*,*,#387,.F.);
#630=ORIENTED_EDGE('',*,*,#391,.F.);
#631=ORIENTED_EDGE('',*,*,#394,.F.);
#632=ORIENTED_EDGE('',*,*,#397,.F.);
#633=ORIENTED_EDGE('',*,*,#408,.F.);
#634=ORIENTED_EDGE('',*,*,#410,.T.);
#635=ORIENTED_EDGE('',*,*,#412,.F.);
#636=ORIENTED_EDGE('',*,*,#416,.T.);
#637=ORIENTED_EDGE('',*,*,#432,.F.);
#638=ORIENTED_EDGE('',*,*,#434,.F.);
#639=ORIENTED_EDGE('',*,*,#435,.F.);
#640=ORIENTED_EDGE('',*,*,#404,.F.);
#641=CYLINDRICAL_SURFACE('',#724,0.3);
#642=CYLINDRICAL_SURFACE('',#738,0.3);
#643=CYLINDRICAL_SURFACE('',#740,1.60000000000003);
#644=CYLINDRICAL_SURFACE('',#742,4.1);
#645=CYLINDRICAL_SURFACE('',#744,1.60000000000002);
#646=CYLINDRICAL_SURFACE('',#749,0.4);
#647=CYLINDRICAL_SURFACE('',#753,0.4);
#648=CYLINDRICAL_SURFACE('',#757,0.349999999999783);
#649=CYLINDRICAL_SURFACE('',#759,7.5);
#650=CYLINDRICAL_SURFACE('',#761,0.35000000000001);
#651=CYLINDRICAL_SURFACE('',#764,4.9);
#652=CYLINDRICAL_SURFACE('',#768,0.3);
#653=CYLINDRICAL_SURFACE('',#782,0.3);
#654=CYLINDRICAL_SURFACE('',#784,1.60000000000003);
#655=CYLINDRICAL_SURFACE('',#786,4.75);
#656=CYLINDRICAL_SURFACE('',#788,1.60000000000002);
#657=CYLINDRICAL_SURFACE('',#793,0.4);
#658=CYLINDRICAL_SURFACE('',#797,0.4);
#659=CYLINDRICAL_SURFACE('',#801,0.349999999999803);
#660=CYLINDRICAL_SURFACE('',#803,8.);
#661=CYLINDRICAL_SURFACE('',#805,0.35000000000001);
#662=CYLINDRICAL_SURFACE('',#808,5.75);
#663=ADVANCED_FACE('',(#41),#641,.T.);
#664=ADVANCED_FACE('',(#42),#31,.T.);
#665=ADVANCED_FACE('',(#43),#32,.T.);
#666=ADVANCED_FACE('',(#44),#33,.T.);
#667=ADVANCED_FACE('',(#45),#642,.T.);
#668=ADVANCED_FACE('',(#46),#21,.T.);
#669=ADVANCED_FACE('',(#47),#643,.T.);
#670=ADVANCED_FACE('',(#48),#644,.F.);
#671=ADVANCED_FACE('',(#49),#645,.T.);
#672=ADVANCED_FACE('',(#50),#22,.T.);
#673=ADVANCED_FACE('',(#51),#17,.F.);
#674=ADVANCED_FACE('',(#52),#18,.F.);
#675=ADVANCED_FACE('',(#53),#646,.T.);
#676=ADVANCED_FACE('',(#54),#34,.T.);
#677=ADVANCED_FACE('',(#55),#647,.T.);
#678=ADVANCED_FACE('',(#56),#35,.T.);
#679=ADVANCED_FACE('',(#57),#648,.T.);
#680=ADVANCED_FACE('',(#58),#649,.T.);
#681=ADVANCED_FACE('',(#59),#650,.T.);
#682=ADVANCED_FACE('',(#60),#23,.T.);
#683=ADVANCED_FACE('',(#61),#651,.F.);
#684=ADVANCED_FACE('',(#62),#24,.T.);
#685=ADVANCED_FACE('',(#63),#25,.F.);
#686=ADVANCED_FACE('',(#64),#652,.T.);
#687=ADVANCED_FACE('',(#65),#36,.T.);
#688=ADVANCED_FACE('',(#66),#37,.T.);
#689=ADVANCED_FACE('',(#67),#38,.T.);
#690=ADVANCED_FACE('',(#68),#653,.T.);
#691=ADVANCED_FACE('',(#69),#26,.T.);
#692=ADVANCED_FACE('',(#70),#654,.T.);
#693=ADVANCED_FACE('',(#71),#655,.F.);
#694=ADVANCED_FACE('',(#72),#656,.T.);
#695=ADVANCED_FACE('',(#73),#27,.T.);
#696=ADVANCED_FACE('',(#74),#19,.F.);
#697=ADVANCED_FACE('',(#75),#20,.F.);
#698=ADVANCED_FACE('',(#76),#657,.T.);
#699=ADVANCED_FACE('',(#77),#39,.T.);
#700=ADVANCED_FACE('',(#78),#658,.T.);
#701=ADVANCED_FACE('',(#79),#40,.T.);
#702=ADVANCED_FACE('',(#80),#659,.T.);
#703=ADVANCED_FACE('',(#81),#660,.T.);
#704=ADVANCED_FACE('',(#82),#661,.T.);
#705=ADVANCED_FACE('',(#83),#28,.T.);
#706=ADVANCED_FACE('',(#84),#662,.F.);
#707=ADVANCED_FACE('',(#85),#29,.T.);
#708=ADVANCED_FACE('',(#86),#30,.F.);
#709=CLOSED_SHELL('',(#663,#664,#665,#666,#667,#668,#669,#670,#671,#672,
#673,#674,#675,#676,#677,#678,#679,#680,#681,#682,#683,#684,#685));
#710=CLOSED_SHELL('',(#686,#687,#688,#689,#690,#691,#692,#693,#694,#695,
#696,#697,#698,#699,#700,#701,#702,#703,#704,#705,#706,#707,#708));
#711=DERIVED_UNIT_ELEMENT(#713,1.);
#712=DERIVED_UNIT_ELEMENT(#1620,-3.);
#713=(
MASS_UNIT()
NAMED_UNIT(*)
SI_UNIT(.KILO.,.GRAM.)
);
#714=DERIVED_UNIT((#711,#712));
#715=MEASURE_REPRESENTATION_ITEM('density measure',
POSITIVE_RATIO_MEASURE(7850.),#714);
#716=PROPERTY_DEFINITION_REPRESENTATION(#721,#718);
#717=PROPERTY_DEFINITION_REPRESENTATION(#722,#719);
#718=REPRESENTATION('material name',(#720),#1617);
#719=REPRESENTATION('density',(#715),#1617);
#720=DESCRIPTIVE_REPRESENTATION_ITEM('Steel','Steel');
#721=PROPERTY_DEFINITION('material property','material name',#1627);
#722=PROPERTY_DEFINITION('material property','density of part',#1627);
#723=AXIS2_PLACEMENT_3D('',#1030,#812,#813);
#724=AXIS2_PLACEMENT_3D('',#1031,#814,#815);
#725=AXIS2_PLACEMENT_3D('',#1034,#816,#817);
#726=AXIS2_PLACEMENT_3D('',#1049,#820,#821);
#727=AXIS2_PLACEMENT_3D('',#1052,#822,#823);
#728=AXIS2_PLACEMENT_3D('',#1053,#824,#825);
#729=AXIS2_PLACEMENT_3D('',#1054,#826,#827);
#730=AXIS2_PLACEMENT_3D('',#1055,#828,#829);
#731=AXIS2_PLACEMENT_3D('',#1058,#830,#831);
#732=AXIS2_PLACEMENT_3D('',#1059,#832,#833);
#733=AXIS2_PLACEMENT_3D('',#1060,#834,#835);
#734=AXIS2_PLACEMENT_3D('',#1061,#836,#837);
#735=AXIS2_PLACEMENT_3D('',#1064,#838,#839);
#736=AXIS2_PLACEMENT_3D('',#1065,#840,#841);
#737=AXIS2_PLACEMENT_3D('',#1066,#842,#843);
#738=AXIS2_PLACEMENT_3D('',#1067,#844,#845);
#739=AXIS2_PLACEMENT_3D('',#1082,#848,#849);
#740=AXIS2_PLACEMENT_3D('',#1092,#855,#856);
#741=AXIS2_PLACEMENT_3D('',#1095,#858,#859);
#742=AXIS2_PLACEMENT_3D('',#1096,#860,#861);
#743=AXIS2_PLACEMENT_3D('',#1099,#863,#864);
#744=AXIS2_PLACEMENT_3D('',#1100,#865,#866);
#745=AXIS2_PLACEMENT_3D('',#1103,#868,#869);
#746=AXIS2_PLACEMENT_3D('',#1104,#870,#871);
#747=AXIS2_PLACEMENT_3D('',#1186,#876,#877);
#748=AXIS2_PLACEMENT_3D('',#1261,#878,#879);
#749=AXIS2_PLACEMENT_3D('',#1262,#880,#881);
#750=AXIS2_PLACEMENT_3D('',#1279,#883,#884);
#751=AXIS2_PLACEMENT_3D('',#1281,#885,#886);
#752=AXIS2_PLACEMENT_3D('',#1296,#887,#888);
#753=AXIS2_PLACEMENT_3D('',#1297,#889,#890);
#754=AXIS2_PLACEMENT_3D('',#1299,#892,#893);
#755=AXIS2_PLACEMENT_3D('',#1300,#894,#895);
#756=AXIS2_PLACEMENT_3D('',#1301,#896,#897);
#757=AXIS2_PLACEMENT_3D('',#1302,#898,#899);
#758=AXIS2_PLACEMENT_3D('',#1305,#901,#902);
#759=AXIS2_PLACEMENT_3D('',#1306,#903,#904);
#760=AXIS2_PLACEMENT_3D('',#1309,#906,#907);
#761=AXIS2_PLACEMENT_3D('',#1310,#908,#909);
#762=AXIS2_PLACEMENT_3D('',#1311,#910,#911);
#763=AXIS2_PLACEMENT_3D('',#1312,#912,#913);
#764=AXIS2_PLACEMENT_3D('',#1313,#914,#915);
#765=AXIS2_PLACEMENT_3D('',#1314,#916,#917);
#766=AXIS2_PLACEMENT_3D('',#1315,#918,#919);
#767=AXIS2_PLACEMENT_3D('',#1316,#920,#921);
#768=AXIS2_PLACEMENT_3D('',#1317,#922,#923);
#769=AXIS2_PLACEMENT_3D('',#1320,#924,#925);
#770=AXIS2_PLACEMENT_3D('',#1335,#928,#929);
#771=AXIS2_PLACEMENT_3D('',#1338,#930,#931);
#772=AXIS2_PLACEMENT_3D('',#1339,#932,#933);
#773=AXIS2_PLACEMENT_3D('',#1340,#934,#935);
#774=AXIS2_PLACEMENT_3D('',#1341,#936,#937);
#775=AXIS2_PLACEMENT_3D('',#1344,#938,#939);
#776=AXIS2_PLACEMENT_3D('',#1345,#940,#941);
#777=AXIS2_PLACEMENT_3D('',#1346,#942,#943);
#778=AXIS2_PLACEMENT_3D('',#1347,#944,#945);
#779=AXIS2_PLACEMENT_3D('',#1350,#946,#947);
#780=AXIS2_PLACEMENT_3D('',#1351,#948,#949);
#781=AXIS2_PLACEMENT_3D('',#1352,#950,#951);
#782=AXIS2_PLACEMENT_3D('',#1353,#952,#953);
#783=AXIS2_PLACEMENT_3D('',#1372,#956,#957);
#784=AXIS2_PLACEMENT_3D('',#1382,#963,#964);
#785=AXIS2_PLACEMENT_3D('',#1385,#966,#967);
#786=AXIS2_PLACEMENT_3D('',#1386,#968,#969);
#787=AXIS2_PLACEMENT_3D('',#1389,#971,#972);
#788=AXIS2_PLACEMENT_3D('',#1390,#973,#974);
#789=AXIS2_PLACEMENT_3D('',#1393,#976,#977);
#790=AXIS2_PLACEMENT_3D('',#1394,#978,#979);
#791=AXIS2_PLACEMENT_3D('',#1484,#984,#985);
#792=AXIS2_PLACEMENT_3D('',#1559,#986,#987);
#793=AXIS2_PLACEMENT_3D('',#1560,#988,#989);
#794=AXIS2_PLACEMENT_3D('',#1577,#991,#992);
#795=AXIS2_PLACEMENT_3D('',#1578,#993,#994);
#796=AXIS2_PLACEMENT_3D('',#1580,#995,#996);
#797=AXIS2_PLACEMENT_3D('',#1595,#997,#998);
#798=AXIS2_PLACEMENT_3D('',#1597,#1000,#1001);
#799=AXIS2_PLACEMENT_3D('',#1598,#1002,#1003);
#800=AXIS2_PLACEMENT_3D('',#1599,#1004,#1005);
#801=AXIS2_PLACEMENT_3D('',#1600,#1006,#1007);
#802=AXIS2_PLACEMENT_3D('',#1603,#1009,#1010);
#803=AXIS2_PLACEMENT_3D('',#1604,#1011,#1012);
#804=AXIS2_PLACEMENT_3D('',#1607,#1014,#1015);
#805=AXIS2_PLACEMENT_3D('',#1608,#1016,#1017);
#806=AXIS2_PLACEMENT_3D('',#1609,#1018,#1019);
#807=AXIS2_PLACEMENT_3D('',#1610,#1020,#1021);
#808=AXIS2_PLACEMENT_3D('',#1611,#1022,#1023);
#809=AXIS2_PLACEMENT_3D('',#1612,#1024,#1025);
#810=AXIS2_PLACEMENT_3D('',#1613,#1026,#1027);
#811=AXIS2_PLACEMENT_3D('',#1614,#1028,#1029);
#812=DIRECTION('axis',(0.,0.,1.));
#813=DIRECTION('refdir',(1.,0.,0.));
#814=DIRECTION('center_axis',(0.,1.,0.));
#815=DIRECTION('ref_axis',(0.70710678118654,0.,0.707106781186555));
#816=DIRECTION('center_axis',(0.,-1.,0.));
#817=DIRECTION('ref_axis',(1.,0.,0.));
#818=DIRECTION('',(0.,-1.,0.));
#819=DIRECTION('',(0.,1.,0.));
#820=DIRECTION('center_axis',(0.,0.,1.));
#821=DIRECTION('ref_axis',(1.,0.,0.));
#822=DIRECTION('center_axis',(0.601251312460675,-0.799059984772305,0.));
#823=DIRECTION('ref_axis',(0.799059984772305,0.601251312460675,0.));
#824=DIRECTION('center_axis',(0.,0.,-1.));
#825=DIRECTION('ref_axis',(0.948435549937977,0.31697004213939,0.));
#826=DIRECTION('center_axis',(0.,0.,1.));
#827=DIRECTION('ref_axis',(0.948435549937977,0.31697004213939,0.));
#828=DIRECTION('center_axis',(0.,0.,-1.));
#829=DIRECTION('ref_axis',(0.0614303756186683,0.998111371015955,0.));
#830=DIRECTION('center_axis',(0.694701136500814,0.719298499195207,0.));
#831=DIRECTION('ref_axis',(-0.719298499195207,0.694701136500814,0.));
#832=DIRECTION('center_axis',(0.,0.,1.));
#833=DIRECTION('ref_axis',(0.0614303756186682,0.998111371015955,0.));
#834=DIRECTION('center_axis',(0.,0.,-1.));
#835=DIRECTION('ref_axis',(0.0614303756186682,0.998111371015955,0.));
#836=DIRECTION('center_axis',(0.,0.,1.));
#837=DIRECTION('ref_axis',(1.,0.,0.));
#838=DIRECTION('center_axis',(0.,1.,0.));
#839=DIRECTION('ref_axis',(-1.,0.,0.));
#840=DIRECTION('center_axis',(0.,0.,-1.));
#841=DIRECTION('ref_axis',(-0.927172718320378,0.374634155413519,0.));
#842=DIRECTION('center_axis',(0.,0.,1.));
#843=DIRECTION('ref_axis',(-0.927172718320378,0.374634155413519,0.));
#844=DIRECTION('center_axis',(0.,-1.,0.));
#845=DIRECTION('ref_axis',(-0.707106781186561,0.,0.707106781186534));
#846=DIRECTION('',(0.,1.,0.));
#847=DIRECTION('',(0.,-1.,0.));
#848=DIRECTION('center_axis',(-1.,0.,0.));
#849=DIRECTION('ref_axis',(0.,-1.,0.));
#850=DIRECTION('',(0.,0.,1.));
#851=DIRECTION('',(0.,0.,1.));
#852=DIRECTION('',(0.,-1.,0.));
#853=DIRECTION('',(0.,0.,1.));
#854=DIRECTION('',(0.,-1.,0.));
#855=DIRECTION('center_axis',(0.,0.,1.));
#856=DIRECTION('ref_axis',(-0.719298499195202,0.69470113650082,0.));
#857=DIRECTION('',(0.,0.,1.));
#858=DIRECTION('center_axis',(0.,0.,1.));
#859=DIRECTION('ref_axis',(-0.719298499195202,0.69470113650082,0.));
#860=DIRECTION('center_axis',(0.,0.,1.));
#861=DIRECTION('ref_axis',(0.0614303756186665,0.998111371015955,0.));
#862=DIRECTION('',(0.,0.,1.));
#863=DIRECTION('center_axis',(0.,0.,1.));
#864=DIRECTION('ref_axis',(0.7192984991952,-0.694701136500821,0.));
#865=DIRECTION('center_axis',(0.,0.,1.));
#866=DIRECTION('ref_axis',(1.,0.,0.));
#867=DIRECTION('',(0.,0.,1.));
#868=DIRECTION('center_axis',(0.,0.,1.));
#869=DIRECTION('ref_axis',(1.,0.,0.));
#870=DIRECTION('center_axis',(1.,0.,0.));
#871=DIRECTION('ref_axis',(0.,1.,0.));
#872=DIRECTION('',(0.,0.,1.));
#873=DIRECTION('',(0.,1.,0.));
#874=DIRECTION('',(0.,0.,1.));
#875=DIRECTION('',(0.,-1.,0.));
#876=DIRECTION('center_axis',(0.,0.,1.));
#877=DIRECTION('ref_axis',(-0.462187680168096,-0.88678213124805,0.));
#878=DIRECTION('center_axis',(0.,0.,1.));
#879=DIRECTION('ref_axis',(-1.,0.,0.));
#880=DIRECTION('center_axis',(0.,-1.,0.));
#881=DIRECTION('ref_axis',(-0.70710678118654,0.,0.707106781186555));
#882=DIRECTION('',(0.,1.,0.));
#883=DIRECTION('center_axis',(0.,0.,-1.));
#884=DIRECTION('ref_axis',(0.0558804467670975,0.998437467079992,0.));
#885=DIRECTION('center_axis',(0.,0.,1.));
#886=DIRECTION('ref_axis',(0.0558804467670963,0.998437467079992,0.));
#887=DIRECTION('center_axis',(0.,0.,-1.));
#888=DIRECTION('ref_axis',(0.0558804467670963,0.998437467079992,0.));
#889=DIRECTION('center_axis',(0.,1.,0.));
#890=DIRECTION('ref_axis',(0.707106781186556,0.,0.707106781186539));
#891=DIRECTION('',(0.,-1.,0.));
#892=DIRECTION('center_axis',(0.,0.,1.));
#893=DIRECTION('ref_axis',(0.0352272248925828,0.99937932869675,0.));
#894=DIRECTION('center_axis',(0.,0.,-1.));
#895=DIRECTION('ref_axis',(0.0352272248925836,0.99937932869675,0.));
#896=DIRECTION('center_axis',(0.,0.,1.));
#897=DIRECTION('ref_axis',(0.0352272248925836,0.99937932869675,0.));
#898=DIRECTION('center_axis',(0.,0.,1.));
#899=DIRECTION('ref_axis',(-0.462187680168094,-0.886782131248051,0.));
#900=DIRECTION('',(0.,0.,1.));
#901=DIRECTION('center_axis',(0.,0.,1.));
#902=DIRECTION('ref_axis',(-0.462187680168094,-0.886782131248051,0.));
#903=DIRECTION('center_axis',(0.,0.,1.));
#904=DIRECTION('ref_axis',(0.0352272248925832,0.99937932869675,0.));
#905=DIRECTION('',(0.,0.,1.));
#906=DIRECTION('center_axis',(0.,0.,1.));
#907=DIRECTION('ref_axis',(0.398601600757014,-0.91712418127206,0.));
#908=DIRECTION('center_axis',(0.,0.,1.));
#909=DIRECTION('ref_axis',(-1.,0.,0.));
#910=DIRECTION('center_axis',(0.,0.,1.));
#911=DIRECTION('ref_axis',(-1.,0.,0.));
#912=DIRECTION('center_axis',(0.,0.,1.));
#913=DIRECTION('ref_axis',(1.,0.,0.));
#914=DIRECTION('center_axis',(0.,0.,1.));
#915=DIRECTION('ref_axis',(0.0558804467670972,0.998437467079992,0.));
#916=DIRECTION('center_axis',(0.,0.,1.));
#917=DIRECTION('ref_axis',(0.510204376614823,-0.860053192589319,0.));
#918=DIRECTION('center_axis',(0.,0.,1.));
#919=DIRECTION('ref_axis',(1.,0.,0.));
#920=DIRECTION('center_axis',(0.,0.,1.));
#921=DIRECTION('ref_axis',(1.,0.,0.));
#922=DIRECTION('center_axis',(0.,1.,0.));
#923=DIRECTION('ref_axis',(0.70710678118655,0.,0.707106781186545));
#924=DIRECTION('center_axis',(0.,-1.,0.));
#925=DIRECTION('ref_axis',(1.,0.,0.));
#926=DIRECTION('',(0.,-1.,0.));
#927=DIRECTION('',(0.,1.,0.));
#928=DIRECTION('center_axis',(0.,0.,1.));
#929=DIRECTION('ref_axis',(1.,0.,0.));
#930=DIRECTION('center_axis',(0.643315876066065,-0.765600864420457,0.));
#931=DIRECTION('ref_axis',(0.765600864420457,0.643315876066065,0.));
#932=DIRECTION('center_axis',(0.,0.,-1.));
#933=DIRECTION('ref_axis',(0.939574601726883,0.342344224122109,0.));
#934=DIRECTION('center_axis',(0.,0.,1.));
#935=DIRECTION('ref_axis',(0.939574601726883,0.342344224122109,0.));
#936=DIRECTION('center_axis',(0.,0.,-1.));
#937=DIRECTION('ref_axis',(0.084935093015212,0.996386486246425,0.));
#938=DIRECTION('center_axis',(0.763616966994954,0.645669518962625,0.));
#939=DIRECTION('ref_axis',(-0.645669518962625,0.763616966994954,0.));
#940=DIRECTION('center_axis',(0.,0.,1.));
#941=DIRECTION('ref_axis',(0.084935093015213,0.996386486246425,0.));
#942=DIRECTION('center_axis',(0.,0.,-1.));
#943=DIRECTION('ref_axis',(0.084935093015213,0.996386486246425,0.));
#944=DIRECTION('center_axis',(0.,0.,1.));
#945=DIRECTION('ref_axis',(1.,0.,0.));
#946=DIRECTION('center_axis',(0.,1.,0.));
#947=DIRECTION('ref_axis',(-1.,0.,0.));
#948=DIRECTION('center_axis',(0.,0.,-1.));
#949=DIRECTION('ref_axis',(-0.907102397462002,0.42091001475219,0.));
#950=DIRECTION('center_axis',(0.,0.,1.));
#951=DIRECTION('ref_axis',(-0.907102397462002,0.42091001475219,0.));
#952=DIRECTION('center_axis',(-9.86721323510627E-16,-1.,0.));
#953=DIRECTION('ref_axis',(-0.70710678118655,1.30841038223647E-15,0.707106781186545));
#954=DIRECTION('',(9.86721323510627E-16,1.,0.));
#955=DIRECTION('',(-9.86721323510627E-16,-1.,0.));
#956=DIRECTION('center_axis',(-1.,9.86721323510627E-16,0.));
#957=DIRECTION('ref_axis',(-9.86721323510627E-16,-1.,0.));
#958=DIRECTION('',(0.,0.,1.));
#959=DIRECTION('',(0.,0.,1.));
#960=DIRECTION('',(-9.86721323510627E-16,-1.,0.));
#961=DIRECTION('',(0.,0.,1.));
#962=DIRECTION('',(-9.86721323510627E-16,-1.,0.));
#963=DIRECTION('center_axis',(0.,0.,1.));
#964=DIRECTION('ref_axis',(-0.645669518962621,0.763616966994957,0.));
#965=DIRECTION('',(0.,0.,1.));
#966=DIRECTION('center_axis',(0.,0.,1.));
#967=DIRECTION('ref_axis',(-0.645669518962621,0.763616966994957,0.));
#968=DIRECTION('center_axis',(0.,0.,1.));
#969=DIRECTION('ref_axis',(0.0849350930152128,0.996386486246425,0.));
#970=DIRECTION('',(0.,0.,1.));
#971=DIRECTION('center_axis',(0.,0.,1.));
#972=DIRECTION('ref_axis',(0.645669518962621,-0.763616966994958,0.));
#973=DIRECTION('center_axis',(0.,0.,1.));
#974=DIRECTION('ref_axis',(1.,0.,0.));
#975=DIRECTION('',(0.,0.,1.));
#976=DIRECTION('center_axis',(0.,0.,1.));
#977=DIRECTION('ref_axis',(1.,0.,0.));
#978=DIRECTION('center_axis',(1.,0.,0.));
#979=DIRECTION('ref_axis',(0.,1.,0.));
#980=DIRECTION('',(0.,0.,1.));
#981=DIRECTION('',(0.,1.,0.));
#982=DIRECTION('',(0.,0.,1.));
#983=DIRECTION('',(0.,-1.,0.));
#984=DIRECTION('center_axis',(0.,0.,1.));
#985=DIRECTION('ref_axis',(-0.472100063930674,-0.881544967450132,0.));
#986=DIRECTION('center_axis',(-2.37904933848241E-15,-9.55065805983149E-16,
1.));
#987=DIRECTION('ref_axis',(-1.,-3.17206578464321E-15,-2.37904933848241E-15));
#988=DIRECTION('center_axis',(-9.86721323510627E-16,-1.,0.));
#989=DIRECTION('ref_axis',(-0.707106781186548,9.81307786677359E-16,0.707106781186547));
#990=DIRECTION('',(9.86721323510627E-16,1.,0.));
#991=DIRECTION('center_axis',(0.,0.,-1.));
#992=DIRECTION('ref_axis',(0.0765948450202775,0.997062299816977,0.));
#993=DIRECTION('center_axis',(0.,0.,-1.));
#994=DIRECTION('ref_axis',(0.0765948450202775,0.997062299816977,0.));
#995=DIRECTION('center_axis',(0.,0.,1.));
#996=DIRECTION('ref_axis',(0.0765948450202775,0.997062299816977,0.));
#997=DIRECTION('center_axis',(0.,1.,0.));
#998=DIRECTION('ref_axis',(0.707106781186548,0.,0.707106781186547));
#999=DIRECTION('',(0.,-1.,0.));
#1000=DIRECTION('center_axis',(0.,0.,1.));
#1001=DIRECTION('ref_axis',(0.0549308627563394,0.998490160350539,0.));
#1002=DIRECTION('center_axis',(0.,0.,-1.));
#1003=DIRECTION('ref_axis',(0.05493086275634,0.998490160350539,0.));
#1004=DIRECTION('center_axis',(0.,0.,1.));
#1005=DIRECTION('ref_axis',(0.05493086275634,0.998490160350539,0.));
#1006=DIRECTION('center_axis',(0.,0.,1.));
#1007=DIRECTION('ref_axis',(-0.472100063930661,-0.881544967450139,0.));
#1008=DIRECTION('',(0.,0.,1.));
#1009=DIRECTION('center_axis',(0.,0.,1.));
#1010=DIRECTION('ref_axis',(-0.472100063930661,-0.881544967450139,0.));
#1011=DIRECTION('center_axis',(0.,0.,1.));
#1012=DIRECTION('ref_axis',(0.0549308627563402,0.998490160350539,0.));
#1013=DIRECTION('',(0.,0.,1.));
#1014=DIRECTION('center_axis',(0.,0.,1.));
#1015=DIRECTION('ref_axis',(0.372549208550673,-0.928012439145224,0.));
#1016=DIRECTION('center_axis',(0.,0.,1.));
#1017=DIRECTION('ref_axis',(-1.,0.,0.));
#1018=DIRECTION('center_axis',(0.,0.,1.));
#1019=DIRECTION('ref_axis',(-1.,0.,0.));
#1020=DIRECTION('center_axis',(0.,0.,1.));
#1021=DIRECTION('ref_axis',(1.,0.,0.));
#1022=DIRECTION('center_axis',(0.,0.,1.));
#1023=DIRECTION('ref_axis',(0.0765948450202776,0.997062299816977,0.));
#1024=DIRECTION('center_axis',(0.,0.,1.));
#1025=DIRECTION('ref_axis',(0.434782860071762,-0.900535321121731,0.));
#1026=DIRECTION('center_axis',(0.,0.,1.));
#1027=DIRECTION('ref_axis',(1.,0.,0.));
#1028=DIRECTION('center_axis',(0.,0.,1.));
#1029=DIRECTION('ref_axis',(1.,0.,0.));
#1030=CARTESIAN_POINT('',(0.,0.,0.));
#1031=CARTESIAN_POINT('Origin',(-58.2546425092486,-1.78305301997536,0.4));
#1032=CARTESIAN_POINT('',(-57.9546425092486,-3.42713248102584,0.4));
#1033=CARTESIAN_POINT('',(-58.2546425092486,-3.42713248102584,0.7));
#1034=CARTESIAN_POINT('Origin',(-58.2546425092486,-3.42713248102584,0.4));
#1035=CARTESIAN_POINT('',(-58.2546425092486,-3.66296410258522,0.7));
#1036=CARTESIAN_POINT('',(-58.2546425092486,-1.78305301997536,0.7));
#1037=CARTESIAN_POINT('',(-57.9546425092486,-3.90897571810688,0.4));
#1038=CARTESIAN_POINT('Ctrl Pts',(-57.9546425092486,-3.90897571810688,0.4));
#1039=CARTESIAN_POINT('Ctrl Pts',(-57.9546425092486,-3.90897571810688,0.437076978191865));
#1040=CARTESIAN_POINT('Ctrl Pts',(-57.9619723938579,-3.90346374983905,0.475892141367307));
#1041=CARTESIAN_POINT('Ctrl Pts',(-57.9897753786533,-3.88220980114415,0.545810856669215));
#1042=CARTESIAN_POINT('Ctrl Pts',(-58.0101745053861,-3.86647601308704,0.576946291018934));
#1043=CARTESIAN_POINT('Ctrl Pts',(-58.0617624399432,-3.82583767938988,0.633973636050785));
#1044=CARTESIAN_POINT('Ctrl Pts',(-58.0985938947848,-3.79621975242999,0.659681310353283));
#1045=CARTESIAN_POINT('Ctrl Pts',(-58.1763957593932,-3.73136417607588,0.692682412440417));
#1046=CARTESIAN_POINT('Ctrl Pts',(-58.2173404549031,-3.69610797899823,0.7));
#1047=CARTESIAN_POINT('Ctrl Pts',(-58.2546425092486,-3.66296410258522,0.7));
#1048=CARTESIAN_POINT('',(-57.9546425092486,-1.78305301997536,0.4));
#1049=CARTESIAN_POINT('Origin',(-59.5546425092486,-3.42713248102584,0.4));
#1050=CARTESIAN_POINT('',(-58.2761465336129,-2.46513038108875,0.4));
#1051=CARTESIAN_POINT('',(-58.5158645290446,-2.64550577482695,0.7));
#1052=CARTESIAN_POINT('Origin',(-58.5158645290446,-2.64550577482695,0.4));
#1053=CARTESIAN_POINT('Origin',(-59.5546425092486,-3.42713248102584,0.7));
#1054=CARTESIAN_POINT('Origin',(-59.5546425092486,-3.42713248102584,0.4));
#1055=CARTESIAN_POINT('Origin',(-55.0000005960464,0.,0.4));
#1056=CARTESIAN_POINT('',(-52.0508767493461,-2.84827465965336,0.4));
#1057=CARTESIAN_POINT('',(-51.8350871995876,-3.05668500060361,0.7));
#1058=CARTESIAN_POINT('Origin',(-51.8350871995876,-3.05668500060361,0.4));
#1059=CARTESIAN_POINT('Origin',(-55.0000005960464,0.,0.7));
#1060=CARTESIAN_POINT('Origin',(-55.0000005960464,0.,0.4));
#1061=CARTESIAN_POINT('Origin',(-50.8999991506338,-3.9597964780547,0.4));
#1062=CARTESIAN_POINT('',(-52.4999991506338,-3.9597964780547,0.4));
#1063=CARTESIAN_POINT('',(-52.1999991506338,-3.9597964780547,0.7));
#1064=CARTESIAN_POINT('Origin',(-52.1999991506338,-3.9597964780547,0.4));
#1065=CARTESIAN_POINT('Origin',(-50.8999991506338,-3.9597964780547,0.7));
#1066=CARTESIAN_POINT('Origin',(-50.8999991506338,-3.9597964780547,0.4));
#1067=CARTESIAN_POINT('Origin',(-52.1999991506338,-1.80846339994926,0.4));
#1068=CARTESIAN_POINT('',(-52.4999991506338,-4.21426064368766,0.4));
#1069=CARTESIAN_POINT('',(-52.1999991506338,-4.02119284612006,0.7));
#1070=CARTESIAN_POINT('Ctrl Pts',(-52.1999991506338,-4.02119284612006,0.7));
#1071=CARTESIAN_POINT('Ctrl Pts',(-52.237367797962,-4.04721305219722,0.7));
#1072=CARTESIAN_POINT('Ctrl Pts',(-52.2780786742917,-4.07470692346772,0.69262668769345));
#1073=CARTESIAN_POINT('Ctrl Pts',(-52.3546795404425,-4.12484811458124,0.660385810070413));
#1074=CARTESIAN_POINT('Ctrl Pts',(-52.3905427639421,-4.14751305760128,0.635482076614854));
#1075=CARTESIAN_POINT('Ctrl Pts',(-52.4425994547732,-4.1797677684343,0.579782454844494));
#1076=CARTESIAN_POINT('Ctrl Pts',(-52.4638847777444,-4.192659910414,0.547784088514639));
#1077=CARTESIAN_POINT('Ctrl Pts',(-52.4926079121629,-4.20990053199767,0.476523725465611));
#1078=CARTESIAN_POINT('Ctrl Pts',(-52.4999991506338,-4.21426064368766,0.43724577965862));
#1079=CARTESIAN_POINT('Ctrl Pts',(-52.4999991506338,-4.21426064368766,0.4));
#1080=CARTESIAN_POINT('',(-52.1999991506338,-1.80846339994926,0.7));
#1081=CARTESIAN_POINT('',(-52.4999991506338,-1.80846339994926,0.4));
#1082=CARTESIAN_POINT('Origin',(-52.4999991506338,-3.9597964780547,0.));
#1083=CARTESIAN_POINT('',(-52.4999991506338,-4.21426064368766,1.6));
#1084=CARTESIAN_POINT('',(-52.4999991506338,-4.21426064368766,0.));
#1085=CARTESIAN_POINT('',(-52.4999991506338,-3.9597964780547,0.));
#1086=CARTESIAN_POINT('',(-52.4999991506338,-3.9597964780547,0.));
#1087=CARTESIAN_POINT('',(-52.4999991506338,-6.55743789609522,0.));
#1088=CARTESIAN_POINT('',(-52.4999991506338,-3.9597964780547,0.));
#1089=CARTESIAN_POINT('',(-52.4999991506338,-6.55743789609522,1.6));
#1090=CARTESIAN_POINT('',(-52.4999991506338,-6.55743789609522,0.));
#1091=CARTESIAN_POINT('',(-52.4999991506338,-1.83175771305116,1.6));
#1092=CARTESIAN_POINT('Origin',(-50.8999991506338,-3.9597964780547,0.));
#1093=CARTESIAN_POINT('',(-52.0508767493461,-2.84827465965336,0.));
#1094=CARTESIAN_POINT('',(-52.0508767493461,-2.84827465965336,0.));
#1095=CARTESIAN_POINT('Origin',(-50.8999991506338,-3.9597964780547,0.));
#1096=CARTESIAN_POINT('Origin',(-55.0000005960464,0.,0.));
#1097=CARTESIAN_POINT('',(-58.2761465336129,-2.46513038108875,0.));
#1098=CARTESIAN_POINT('',(-58.2761465336129,-2.46513038108875,0.));
#1099=CARTESIAN_POINT('Origin',(-55.0000005960464,0.,0.));
#1100=CARTESIAN_POINT('Origin',(-59.5546425092486,-3.42713248102584,0.));
#1101=CARTESIAN_POINT('',(-57.9546425092486,-3.42713248102584,0.));
#1102=CARTESIAN_POINT('',(-57.9546425092486,-3.42713248102584,0.));
#1103=CARTESIAN_POINT('Origin',(-59.5546425092486,-3.42713248102584,0.));
#1104=CARTESIAN_POINT('Origin',(-57.9546425092486,-3.90897571810689,0.));
#1105=CARTESIAN_POINT('',(-57.9546425092486,-3.90897571810689,1.6));
#1106=CARTESIAN_POINT('',(-57.9546425092486,-3.90897571810689,0.));
#1107=CARTESIAN_POINT('',(-57.9546425092486,-6.34049223842379,1.6));
#1108=CARTESIAN_POINT('',(-57.9546425092486,-1.80634733307725,1.6));
#1109=CARTESIAN_POINT('',(-57.9546425092486,-6.34049223842379,0.));
#1110=CARTESIAN_POINT('',(-57.9546425092486,-6.34049223842379,0.));
#1111=CARTESIAN_POINT('',(-57.9546425092486,-3.42713248102584,0.));
#1112=CARTESIAN_POINT('Ctrl Pts',(-57.9546425092486,-6.34049223842379,1.6));
#1113=CARTESIAN_POINT('Ctrl Pts',(-57.9546425092486,-6.34049223842379,1.66186377502887));
#1114=CARTESIAN_POINT('Ctrl Pts',(-57.9860455011351,-6.33402165813084,1.77824460924263));
#1115=CARTESIAN_POINT('Ctrl Pts',(-58.0668871430399,-6.31732426822481,1.88475154936332));
#1116=CARTESIAN_POINT('Ctrl Pts',(-58.1870451277457,-6.29243218494669,1.97496419937331));
#1117=CARTESIAN_POINT('Ctrl Pts',(-58.2831401550798,-6.27243483444307,1.99843839662271));
#1118=CARTESIAN_POINT('Ctrl Pts',(-58.3493212048321,-6.25861693706302,1.99997882664504));
#1119=CARTESIAN_POINT('Ctrl Pts',(-58.3519824911275,-6.25806122749857,2.));
#1120=CARTESIAN_POINT('Ctrl Pts',(-58.3546425092486,-6.25750570388773,2.));
#1121=CARTESIAN_POINT('Ctrl Pts',(-57.9546425092486,-6.40886746945837,1.6));
#1122=CARTESIAN_POINT('Ctrl Pts',(-57.9546425092486,-6.40886746945837,1.679335647668));
#1123=CARTESIAN_POINT('Ctrl Pts',(-58.0032613484089,-6.38028862144457,1.81527345881273));
#1124=CARTESIAN_POINT('Ctrl Pts',(-58.0920155428906,-6.34501892473036,1.90657912363938));
#1125=CARTESIAN_POINT('Ctrl Pts',(-58.2077263751137,-6.3045080369324,1.98178459428496));
#1126=CARTESIAN_POINT('Ctrl Pts',(-58.2919088435153,-6.27771560796672,1.99850478832228));
#1127=CARTESIAN_POINT('Ctrl Pts',(-58.3499740928151,-6.25900712226318,1.99999202259146));
#1128=CARTESIAN_POINT('Ctrl Pts',(-58.3523088941476,-6.25825659227046,2.));
#1129=CARTESIAN_POINT('Ctrl Pts',(-58.3546425092486,-6.25750570388773,2.));
#1130=CARTESIAN_POINT('Ctrl Pts',(-57.995857435866,-6.5450080462191,1.6));
#1131=CARTESIAN_POINT('Ctrl Pts',(-57.995857435866,-6.5450080462191,1.70773575860593));
#1132=CARTESIAN_POINT('Ctrl Pts',(-58.0645823508847,-6.47252078399346,1.87342188762687));
#1133=CARTESIAN_POINT('Ctrl Pts',(-58.1524591575409,-6.40025186111463,1.93847617140635));
#1134=CARTESIAN_POINT('Ctrl Pts',(-58.2490157234701,-6.32858517822153,1.99137611730953));
#1135=CARTESIAN_POINT('Ctrl Pts',(-58.3093978174607,-6.28825777419562,1.99852369637963));
#1136=CARTESIAN_POINT('Ctrl Pts',(-58.3512811937073,-6.25978796458125,2.00001278837073));
#1137=CARTESIAN_POINT('Ctrl Pts',(-58.3529617001876,-6.25864732181424,2.));
#1138=CARTESIAN_POINT('Ctrl Pts',(-58.3546425092486,-6.25750570388773,2.));
#1139=CARTESIAN_POINT('Ctrl Pts',(-58.1883284076867,-6.70516157627825,1.6));
#1140=CARTESIAN_POINT('Ctrl Pts',(-58.1883284076867,-6.70516157627825,1.71872167971234));
#1141=CARTESIAN_POINT('Ctrl Pts',(-58.2385398722767,-6.59869009482207,1.89536220869641));
#1142=CARTESIAN_POINT('Ctrl Pts',(-58.2819961483911,-6.48561101156416,1.94985185736366));
#1143=CARTESIAN_POINT('Ctrl Pts',(-58.3210150711009,-6.37172616636886,1.99468743650238));
#1144=CARTESIAN_POINT('Ctrl Pts',(-58.3400816586541,-6.30671042235149,1.99850713159744));
#1145=CARTESIAN_POINT('Ctrl Pts',(-58.3535669213193,-6.2611543583417,2.00002064085174));
#1146=CARTESIAN_POINT('Ctrl Pts',(-58.3541041107578,-6.25933109851586,2.));
#1147=CARTESIAN_POINT('Ctrl Pts',(-58.3546425092486,-6.25750570388773,2.));
#1148=CARTESIAN_POINT('Ctrl Pts',(-58.375457297655,-6.69826926847966,1.6));
#1149=CARTESIAN_POINT('Ctrl Pts',(-58.375457297655,-6.69826926847966,1.68828975730246));
#1150=CARTESIAN_POINT('Ctrl Pts',(-58.3844579986405,-6.6286815360069,1.83412408073551));
#1151=CARTESIAN_POINT('Ctrl Pts',(-58.3814294081565,-6.52554296662422,1.91754060559478));
#1152=CARTESIAN_POINT('Ctrl Pts',(-58.3718849693096,-6.40258847780476,1.98518489519921));
#1153=CARTESIAN_POINT('Ctrl Pts',(-58.3620313544331,-6.319632305537,1.99853320004648));
#1154=CARTESIAN_POINT('Ctrl Pts',(-58.355198764408,-6.26213657713048,1.99999874115888));
#1155=CARTESIAN_POINT('Ctrl Pts',(-58.3549201183079,-6.25981951044558,2.));
#1156=CARTESIAN_POINT('Ctrl Pts',(-58.3546425092486,-6.25750570388773,2.));
#1157=CARTESIAN_POINT('Ctrl Pts',(-58.4664081973071,-6.65086598436041,1.6));
#1158=CARTESIAN_POINT('Ctrl Pts',(-58.4664081973071,-6.65086598436041,1.66186377502887));
#1159=CARTESIAN_POINT('Ctrl Pts',(-58.4579269446703,-6.61987599778598,1.77824460924279));
#1160=CARTESIAN_POINT('Ctrl Pts',(-58.4358285770384,-6.54019399815895,1.88475154936366));
#1161=CARTESIAN_POINT('Ctrl Pts',(-58.4024938361407,-6.42193965034028,1.97496419937367));
#1162=CARTESIAN_POINT('Ctrl Pts',(-58.3752423115312,-6.32758786292391,1.99843839662413));
#1163=CARTESIAN_POINT('Ctrl Pts',(-58.3561767883139,-6.26272085024991,1.99997882664498));
#1164=CARTESIAN_POINT('Ctrl Pts',(-58.355409722838,-6.26011255760342,2.));
#1165=CARTESIAN_POINT('Ctrl Pts',(-58.3546425092486,-6.25750570388773,2.));
#1166=CARTESIAN_POINT('',(-58.3546425092486,-6.25750570388773,2.));
#1167=CARTESIAN_POINT('Ctrl Pts',(-57.9546425092486,-6.34049223842379,1.6));
#1168=CARTESIAN_POINT('Ctrl Pts',(-57.9546425092486,-6.34049223842379,1.66186377502887));
#1169=CARTESIAN_POINT('Ctrl Pts',(-57.9860455011351,-6.33402165813084,1.77824460924263));
#1170=CARTESIAN_POINT('Ctrl Pts',(-58.0668871430399,-6.31732426822481,1.88475154936332));
#1171=CARTESIAN_POINT('Ctrl Pts',(-58.1870451277457,-6.29243218494669,1.97496419937331));
#1172=CARTESIAN_POINT('Ctrl Pts',(-58.2831401550798,-6.27243483444307,1.99843839662271));
#1173=CARTESIAN_POINT('Ctrl Pts',(-58.3493212048321,-6.25861693706302,1.99997882664504));
#1174=CARTESIAN_POINT('Ctrl Pts',(-58.3519824911275,-6.25806122749857,2.));
#1175=CARTESIAN_POINT('Ctrl Pts',(-58.3546425092486,-6.25750570388773,2.));
#1176=CARTESIAN_POINT('',(-58.4664081973071,-6.65086598436041,1.6));
#1177=CARTESIAN_POINT('Ctrl Pts',(-58.3546425092486,-6.25750570388773,2.));
#1178=CARTESIAN_POINT('Ctrl Pts',(-58.355409722838,-6.26011255760342,2.));
#1179=CARTESIAN_POINT('Ctrl Pts',(-58.3561767883139,-6.26272085024991,1.99997882664498));
#1180=CARTESIAN_POINT('Ctrl Pts',(-58.3752423115312,-6.32758786292391,1.99843839662413));
#1181=CARTESIAN_POINT('Ctrl Pts',(-58.4024938361407,-6.42193965034028,1.97496419937367));
#1182=CARTESIAN_POINT('Ctrl Pts',(-58.4358285770384,-6.54019399815895,1.88475154936366));
#1183=CARTESIAN_POINT('Ctrl Pts',(-58.4579269446703,-6.61987599778598,1.77824460924279));
#1184=CARTESIAN_POINT('Ctrl Pts',(-58.4664081973071,-6.65086598436041,1.66186377502887));
#1185=CARTESIAN_POINT('Ctrl Pts',(-58.4664081973071,-6.65086598436041,1.6));
#1186=CARTESIAN_POINT('Origin',(-58.3046425092484,-6.34049223842379,1.6));
#1187=CARTESIAN_POINT('Ctrl Pts',(-52.0104885903688,-6.87843135954045,1.6));
#1188=CARTESIAN_POINT('Ctrl Pts',(-52.0104885903688,-6.87843135954045,1.65940267276931));
#1189=CARTESIAN_POINT('Ctrl Pts',(-52.0202957110018,-6.832850281688,1.82854311965407));
#1190=CARTESIAN_POINT('Ctrl Pts',(-52.0473464617162,-6.70988740299685,1.9371107420687));
#1191=CARTESIAN_POINT('Ctrl Pts',(-52.0756149478638,-6.58562601279692,1.99028269269553));
#1192=CARTESIAN_POINT('Ctrl Pts',(-52.0906546189324,-6.52066436587755,1.99922641282761));
#1193=CARTESIAN_POINT('Ctrl Pts',(-52.0987626030636,-6.48601835538668,1.99997556925022));
#1194=CARTESIAN_POINT('Ctrl Pts',(-52.0993808628096,-6.48337811138261,2.));
#1195=CARTESIAN_POINT('Ctrl Pts',(-52.0999991506338,-6.48074005161483,2.));
#1196=CARTESIAN_POINT('Ctrl Pts',(-52.0710428731101,-6.90474953381416,1.6));
#1197=CARTESIAN_POINT('Ctrl Pts',(-52.0710428731101,-6.90474953381416,1.67438530430286));
#1198=CARTESIAN_POINT('Ctrl Pts',(-52.0642886795775,-6.82721221134331,1.86774391615935));
#1199=CARTESIAN_POINT('Ctrl Pts',(-52.0749367001782,-6.69567332476657,1.94728090302478));
#1200=CARTESIAN_POINT('Ctrl Pts',(-52.0879663795305,-6.57777393231657,1.99344750154547));
#1201=CARTESIAN_POINT('Ctrl Pts',(-52.0953829049334,-6.51759130607961,1.99930531697459));
#1202=CARTESIAN_POINT('Ctrl Pts',(-52.099387145452,-6.48561406796586,1.99998613437435));
#1203=CARTESIAN_POINT('Ctrl Pts',(-52.0996931291889,-6.48317573969116,2.));
#1204=CARTESIAN_POINT('Ctrl Pts',(-52.0999991506338,-6.48074005161483,2.));
#1205=CARTESIAN_POINT('Ctrl Pts',(-52.2069686146133,-6.92197493115864,1.6));
#1206=CARTESIAN_POINT('Ctrl Pts',(-52.2069686146133,-6.92197493115864,1.69851550545489));
#1207=CARTESIAN_POINT('Ctrl Pts',(-52.1597787144989,-6.79840971213388,1.92809157097629));
#1208=CARTESIAN_POINT('Ctrl Pts',(-52.1311324025547,-6.6647901735938,1.96104873921606));
#1209=CARTESIAN_POINT('Ctrl Pts',(-52.1127416950269,-6.56183075507462,1.99819759302258));
#1210=CARTESIAN_POINT('Ctrl Pts',(-52.1048270632875,-6.51146466151085,1.99939119187093));
#1211=CARTESIAN_POINT('Ctrl Pts',(-52.1006368245686,-6.48480445958638,2.00000250287329));
#1212=CARTESIAN_POINT('Ctrl Pts',(-52.1003176619476,-6.48277099630825,2.));
#1213=CARTESIAN_POINT('Ctrl Pts',(-52.0999991506338,-6.48074005161483,2.));
#1214=CARTESIAN_POINT('Ctrl Pts',(-52.4253658157249,-6.82002212792789,1.6));
#1215=CARTESIAN_POINT('Ctrl Pts',(-52.4253658157249,-6.82002212792789,1.70778909582017));
#1216=CARTESIAN_POINT('Ctrl Pts',(-52.3270499560259,-6.70116876861555,1.95052475687261));
#1217=CARTESIAN_POINT('Ctrl Pts',(-52.2291538284665,-6.60320381769875,1.96563534869513));
#1218=CARTESIAN_POINT('Ctrl Pts',(-52.156462808293,-6.5335297457574,1.99992953725084));
#1219=CARTESIAN_POINT('Ctrl Pts',(-52.1213586606244,-6.50075717281608,1.99941308962915));
#1220=CARTESIAN_POINT('Ctrl Pts',(-52.1028238115567,-6.48338661894701,2.00000861933418));
#1221=CARTESIAN_POINT('Ctrl Pts',(-52.1014105942752,-6.48206269538816,2.));
#1222=CARTESIAN_POINT('Ctrl Pts',(-52.0999991506338,-6.48074005161483,2.));
#1223=CARTESIAN_POINT('Ctrl Pts',(-52.4999991506338,-6.65647729115933,1.6));
#1224=CARTESIAN_POINT('Ctrl Pts',(-52.4999991506338,-6.65647729115933,1.68204989008083));
#1225=CARTESIAN_POINT('Ctrl Pts',(-52.4196130667242,-6.60567893949852,1.88762417522918));
#1226=CARTESIAN_POINT('Ctrl Pts',(-52.2942052481139,-6.55429484063115,1.95231803421837));
#1227=CARTESIAN_POINT('Ctrl Pts',(-52.1872577103084,-6.51319217629038,1.99504448496519));
#1228=CARTESIAN_POINT('Ctrl Pts',(-52.133136805321,-6.49309196491477,1.99934306334267));
#1229=CARTESIAN_POINT('Ctrl Pts',(-52.104386826717,-6.48237440685526,1.99999149801116));
#1230=CARTESIAN_POINT('Ctrl Pts',(-52.1021912602235,-6.48155676615953,2.));
#1231=CARTESIAN_POINT('Ctrl Pts',(-52.0999991506338,-6.48074005161483,2.));
#1232=CARTESIAN_POINT('Ctrl Pts',(-52.4999991506338,-6.55743789609522,1.6));
#1233=CARTESIAN_POINT('Ctrl Pts',(-52.4999991506338,-6.55743789609522,1.65940267276931));
#1234=CARTESIAN_POINT('Ctrl Pts',(-52.4542824823515,-6.54872740092602,1.828543119654));
#1235=CARTESIAN_POINT('Ctrl Pts',(-52.3307868372199,-6.52512465541569,1.93711074206839));
#1236=CARTESIAN_POINT('Ctrl Pts',(-52.2057192099711,-6.50110686286813,1.99028269269533));
#1237=CARTESIAN_POINT('Ctrl Pts',(-52.1402594715566,-6.4885038767691,1.99922641282691));
#1238=CARTESIAN_POINT('Ctrl Pts',(-52.1053222124465,-6.48176669321759,1.99997556925028));
#1239=CARTESIAN_POINT('Ctrl Pts',(-52.1026596597925,-6.48125320862235,2.));
#1240=CARTESIAN_POINT('Ctrl Pts',(-52.0999991506338,-6.48074005161483,2.));
#1241=CARTESIAN_POINT('',(-52.0104885903688,-6.87843135954045,1.6));
#1242=CARTESIAN_POINT('',(-52.0999991506338,-6.48074005161483,2.));
#1243=CARTESIAN_POINT('Ctrl Pts',(-52.0104885903688,-6.87843135954045,1.6));
#1244=CARTESIAN_POINT('Ctrl Pts',(-52.0104885903688,-6.87843135954045,1.65940267276931));
#1245=CARTESIAN_POINT('Ctrl Pts',(-52.0202957110018,-6.832850281688,1.82854311965407));
#1246=CARTESIAN_POINT('Ctrl Pts',(-52.0473464617162,-6.70988740299685,1.9371107420687));
#1247=CARTESIAN_POINT('Ctrl Pts',(-52.0756149478638,-6.58562601279692,1.99028269269553));
#1248=CARTESIAN_POINT('Ctrl Pts',(-52.0906546189324,-6.52066436587755,1.99922641282761));
#1249=CARTESIAN_POINT('Ctrl Pts',(-52.0987626030636,-6.48601835538668,1.99997556925022));
#1250=CARTESIAN_POINT('Ctrl Pts',(-52.0993808628096,-6.48337811138261,2.));
#1251=CARTESIAN_POINT('Ctrl Pts',(-52.0999991506338,-6.48074005161483,2.));
#1252=CARTESIAN_POINT('Ctrl Pts',(-52.0999991506338,-6.48074005161483,2.));
#1253=CARTESIAN_POINT('Ctrl Pts',(-52.1026596597925,-6.48125320862235,2.));
#1254=CARTESIAN_POINT('Ctrl Pts',(-52.1053222124465,-6.48176669321759,1.99997556925028));
#1255=CARTESIAN_POINT('Ctrl Pts',(-52.1402594715566,-6.4885038767691,1.99922641282691));
#1256=CARTESIAN_POINT('Ctrl Pts',(-52.2057192099711,-6.50110686286813,1.99028269269533));
#1257=CARTESIAN_POINT('Ctrl Pts',(-52.3307868372199,-6.52512465541569,1.93711074206839));
#1258=CARTESIAN_POINT('Ctrl Pts',(-52.4542824823515,-6.54872740092602,1.828543119654));
#1259=CARTESIAN_POINT('Ctrl Pts',(-52.4999991506338,-6.55743789609522,1.65940267276931));
#1260=CARTESIAN_POINT('Ctrl Pts',(-52.4999991506338,-6.55743789609522,1.6));
#1261=CARTESIAN_POINT('Origin',(-52.1499991506338,-6.55743789609522,1.6));
#1262=CARTESIAN_POINT('Origin',(-52.0999991506338,-1.83175771305116,1.6));
#1263=CARTESIAN_POINT('',(-52.0999991506338,-4.43621365768204,2.));
#1264=CARTESIAN_POINT('',(-52.0999991506338,-1.83175771305116,2.));
#1265=CARTESIAN_POINT('Ctrl Pts',(-52.0999991506338,-4.43621365768204,2.));
#1266=CARTESIAN_POINT('Ctrl Pts',(-52.100942345855,-4.43570338758637,2.));
#1267=CARTESIAN_POINT('Ctrl Pts',(-52.1018855039297,-4.43519304954609,1.99999666393543));
#1268=CARTESIAN_POINT('Ctrl Pts',(-52.1354583657689,-4.41702380809391,1.99975917561037));
#1269=CARTESIAN_POINT('Ctrl Pts',(-52.1680092986072,-4.39930054451864,1.99553601523957));
#1270=CARTESIAN_POINT('Ctrl Pts',(-52.2311462041355,-4.36472013770022,1.97927785418362));
#1271=CARTESIAN_POINT('Ctrl Pts',(-52.2617211031764,-4.34787129255776,1.96733372598726));
#1272=CARTESIAN_POINT('Ctrl Pts',(-52.3349025991253,-4.30732574457012,1.92763891788321));
#1273=CARTESIAN_POINT('Ctrl Pts',(-52.3752028971035,-4.28478331397488,1.89499788343995));
#1274=CARTESIAN_POINT('Ctrl Pts',(-52.4378706493929,-4.24952703862365,1.81898847688568));
#1275=CARTESIAN_POINT('Ctrl Pts',(-52.4614113463564,-4.23618881387604,1.77797987736013));
#1276=CARTESIAN_POINT('Ctrl Pts',(-52.4922044079678,-4.21870583997125,1.6904789130679));
#1277=CARTESIAN_POINT('Ctrl Pts',(-52.4999991506338,-4.21426064368766,1.6456146298454));
#1278=CARTESIAN_POINT('Ctrl Pts',(-52.4999991506338,-4.21426064368766,1.6));
#1279=CARTESIAN_POINT('Origin',(-55.0000005960464,0.,1.6));
#1280=CARTESIAN_POINT('',(-58.3546425092486,-4.10321552373106,2.));
#1281=CARTESIAN_POINT('Origin',(-55.0000005960464,0.,2.));
#1282=CARTESIAN_POINT('Ctrl Pts',(-58.3546425092486,-4.10321552373106,2.));
#1283=CARTESIAN_POINT('Ctrl Pts',(-58.3536985013971,-4.10276796417753,2.));
#1284=CARTESIAN_POINT('Ctrl Pts',(-58.3527545226949,-4.10232034521636,1.99999665818443));
#1285=CARTESIAN_POINT('Ctrl Pts',(-58.3205236235786,-4.08703448794943,1.99976846427717));
#1286=CARTESIAN_POINT('Ctrl Pts',(-58.2893186738494,-4.07215356380593,1.99587649634442));
#1287=CARTESIAN_POINT('Ctrl Pts',(-58.2286077081169,-4.04304614187137,1.9809001352323));
#1288=CARTESIAN_POINT('Ctrl Pts',(-58.1991512582615,-4.02884470863395,1.96988832480052));
#1289=CARTESIAN_POINT('Ctrl Pts',(-58.1260084733503,-3.99340772819733,1.93212142902536));
#1290=CARTESIAN_POINT('Ctrl Pts',(-58.0849208466142,-3.97331721805996,1.90002415211914));
#1291=CARTESIAN_POINT('Ctrl Pts',(-58.0200265541456,-3.9414096357027,1.82419394792772));
#1292=CARTESIAN_POINT('Ctrl Pts',(-57.9953858709848,-3.9292086374439,1.782535344622));
#1293=CARTESIAN_POINT('Ctrl Pts',(-57.9628931432464,-3.91308747454636,1.6931392007234));
#1294=CARTESIAN_POINT('Ctrl Pts',(-57.9546425092486,-3.90897571810688,1.64692601045658));
#1295=CARTESIAN_POINT('Ctrl Pts',(-57.9546425092486,-3.90897571810688,1.6));
#1296=CARTESIAN_POINT('Origin',(-55.0000005960464,0.,1.6));
#1297=CARTESIAN_POINT('Origin',(-58.3546425092486,-1.80634733307725,1.6));
#1298=CARTESIAN_POINT('',(-58.3546425092486,-1.80634733307725,2.));
#1299=CARTESIAN_POINT('Origin',(-55.0000005960464,0.,1.6));
#1300=CARTESIAN_POINT('Origin',(-55.0000005960464,0.,2.));
#1301=CARTESIAN_POINT('Origin',(-55.0000005960464,0.,1.6));
#1302=CARTESIAN_POINT('Origin',(-58.3046425092484,-6.34049223842379,0.));
#1303=CARTESIAN_POINT('',(-58.4664081973071,-6.65086598436041,0.));
#1304=CARTESIAN_POINT('',(-58.4664081973071,-6.65086598436041,0.));
#1305=CARTESIAN_POINT('Origin',(-58.3046425092484,-6.34049223842379,0.));
#1306=CARTESIAN_POINT('Origin',(-55.0000005960464,0.,0.));
#1307=CARTESIAN_POINT('',(-52.0104885903688,-6.87843135954045,0.));
#1308=CARTESIAN_POINT('',(-52.0104885903688,-6.87843135954045,0.));
#1309=CARTESIAN_POINT('Origin',(-55.0000005960464,0.,0.));
#1310=CARTESIAN_POINT('Origin',(-52.1499991506338,-6.55743789609522,0.));
#1311=CARTESIAN_POINT('Origin',(-52.1499991506338,-6.55743789609522,0.));
#1312=CARTESIAN_POINT('Origin',(-55.0000005960464,0.296281051952386,2.));
#1313=CARTESIAN_POINT('Origin',(-55.0000005960464,0.,0.));
#1314=CARTESIAN_POINT('Origin',(-55.0000005960464,0.,0.7));
#1315=CARTESIAN_POINT('Origin',(-55.0000005960464,0.342869678156169,0.7));
#1316=CARTESIAN_POINT('Origin',(-55.0000005960464,0.342869678156169,0.));
#1317=CARTESIAN_POINT('Origin',(-25.5615660851164,-2.22475528642361,0.4));
#1318=CARTESIAN_POINT('',(-25.2615660851164,-4.08505581301949,0.4));
#1319=CARTESIAN_POINT('',(-25.5615660851164,-4.08505581301949,0.7));
#1320=CARTESIAN_POINT('Origin',(-25.5615660851164,-4.08505581301949,0.4));
#1321=CARTESIAN_POINT('',(-25.5615660851164,-4.51417226820888,0.7));
#1322=CARTESIAN_POINT('',(-25.5615660851164,-2.22475528642361,0.7));
#1323=CARTESIAN_POINT('',(-25.2615660851164,-4.73547152462224,0.4));
#1324=CARTESIAN_POINT('Ctrl Pts',(-25.2615660851164,-4.73547152462224,0.4));
#1325=CARTESIAN_POINT('Ctrl Pts',(-25.2615660851164,-4.73547152462224,0.437178398556432));
#1326=CARTESIAN_POINT('Ctrl Pts',(-25.2689334081859,-4.73042007934626,0.476222029465481));
#1327=CARTESIAN_POINT('Ctrl Pts',(-25.2971759689275,-4.71077811275875,0.546770364901499));
#1328=CARTESIAN_POINT('Ctrl Pts',(-25.3179894858914,-4.69619251077097,0.57830113167093));
#1329=CARTESIAN_POINT('Ctrl Pts',(-25.3697088320158,-4.65927484176989,0.634600110492109));
#1330=CARTESIAN_POINT('Ctrl Pts',(-25.4060069374727,-4.63291974077241,0.659920670765626));
#1331=CARTESIAN_POINT('Ctrl Pts',(-25.4832159639925,-4.57515412074246,0.692606662481009));
#1332=CARTESIAN_POINT('Ctrl Pts',(-25.5241040359896,-4.54372885874034,0.7));
#1333=CARTESIAN_POINT('Ctrl Pts',(-25.5615660851164,-4.51417226820888,0.7));
#1334=CARTESIAN_POINT('',(-25.2615660851164,-2.22475528642361,0.4));
#1335=CARTESIAN_POINT('Origin',(-26.8615660851164,-4.08505581301949,0.4));
#1336=CARTESIAN_POINT('',(-25.6366047020436,-3.05575041131378,0.4));
#1337=CARTESIAN_POINT('',(-25.8662849613698,-3.2487451741336,0.7));
#1338=CARTESIAN_POINT('Origin',(-25.8662849613698,-3.2487451741336,0.4));
#1339=CARTESIAN_POINT('Origin',(-26.8615660851164,-4.08505581301949,0.7));
#1340=CARTESIAN_POINT('Origin',(-26.8615660851164,-4.08505581301949,0.4));
#1341=CARTESIAN_POINT('Origin',(-22.0000005960464,0.,0.4));
#1342=CARTESIAN_POINT('',(-18.933070380974,-3.62718059322605,0.4));
#1343=CARTESIAN_POINT('',(-18.7393695252852,-3.85626568332453,0.7));
#1344=CARTESIAN_POINT('Origin',(-18.7393695252852,-3.85626568332453,0.4));
#1345=CARTESIAN_POINT('Origin',(-22.0000005960464,0.,0.7));
#1346=CARTESIAN_POINT('Origin',(-22.0000005960464,0.,0.4));
#1347=CARTESIAN_POINT('Origin',(-17.8999991506338,-4.848967740418,0.4));
#1348=CARTESIAN_POINT('',(-19.4999991506338,-4.848967740418,0.4));
#1349=CARTESIAN_POINT('',(-19.1999991506338,-4.848967740418,0.7));
#1350=CARTESIAN_POINT('Origin',(-19.1999991506338,-4.848967740418,0.4));
#1351=CARTESIAN_POINT('Origin',(-17.8999991506338,-4.848967740418,0.7));
#1352=CARTESIAN_POINT('Origin',(-17.8999991506338,-4.848967740418,0.4));
#1353=CARTESIAN_POINT('Origin',(-19.1999991506338,-2.28150339432149,0.4));
#1354=CARTESIAN_POINT('',(-19.4999991506338,-5.17807809644995,0.4));
#1355=CARTESIAN_POINT('',(-19.1999991506338,-5.02219990698172,0.7));
#1356=CARTESIAN_POINT('Ctrl Pts',(-19.1999991506345,-5.0221999069821,0.7));
#1357=CARTESIAN_POINT('Ctrl Pts',(-19.2012587463132,-5.02290216292297,0.699999999999997));
#1358=CARTESIAN_POINT('Ctrl Pts',(-19.2025187037881,-5.02360399677809,0.699992241579665));
#1359=CARTESIAN_POINT('Ctrl Pts',(-19.2367070997202,-5.04263124174823,0.699556798702016));
#1360=CARTESIAN_POINT('Ctrl Pts',(-19.2697534066854,-5.06056933436133,0.693440146223266));
#1361=CARTESIAN_POINT('Ctrl Pts',(-19.3265421329367,-5.09078381593941,0.673545091657997));
#1362=CARTESIAN_POINT('Ctrl Pts',(-19.3551437441214,-5.10568728677357,0.658807769763311));
#1363=CARTESIAN_POINT('Ctrl Pts',(-19.4066888602534,-5.13206592282213,0.619811058196187));
#1364=CARTESIAN_POINT('Ctrl Pts',(-19.4296334363876,-5.14354953460503,0.595558798721049));
#1365=CARTESIAN_POINT('Ctrl Pts',(-19.4631339377803,-5.16014722926617,0.546770498396418));
#1366=CARTESIAN_POINT('Ctrl Pts',(-19.4770619923701,-5.16694971741479,0.519124808244738));
#1367=CARTESIAN_POINT('Ctrl Pts',(-19.4954942169945,-5.17591254322801,0.460255939680488));
#1368=CARTESIAN_POINT('Ctrl Pts',(-19.4999991506338,-5.17807809644995,0.429033794552189));
#1369=CARTESIAN_POINT('Ctrl Pts',(-19.4999991506338,-5.17807809644995,0.4));
#1370=CARTESIAN_POINT('',(-19.1999991506338,-2.28150339432149,0.7));
#1371=CARTESIAN_POINT('',(-19.4999991506338,-2.28150339432149,0.4));
#1372=CARTESIAN_POINT('Origin',(-19.4999991506338,-4.848967740418,0.));
#1373=CARTESIAN_POINT('',(-19.4999991506338,-5.17807809644995,1.6));
#1374=CARTESIAN_POINT('',(-19.4999991506338,-5.17807809644995,0.));
#1375=CARTESIAN_POINT('',(-19.4999991506338,-4.848967740418,0.));
#1376=CARTESIAN_POINT('',(-19.4999991506338,-4.848967740418,0.));
#1377=CARTESIAN_POINT('',(-19.4999991506338,-7.09929515946095,0.));
#1378=CARTESIAN_POINT('',(-19.4999991506338,-4.848967740418,0.));
#1379=CARTESIAN_POINT('',(-19.4999991506338,-7.09929515946096,1.6));
#1380=CARTESIAN_POINT('',(-19.4999991506338,-7.09929515946095,0.));
#1381=CARTESIAN_POINT('',(-19.4999991506338,-2.28680766007424,1.6));
#1382=CARTESIAN_POINT('Origin',(-17.8999991506338,-4.848967740418,0.));
#1383=CARTESIAN_POINT('',(-18.933070380974,-3.62718059322605,0.));
#1384=CARTESIAN_POINT('',(-18.933070380974,-3.62718059322605,0.));
#1385=CARTESIAN_POINT('Origin',(-17.8999991506338,-4.848967740418,0.));
#1386=CARTESIAN_POINT('Origin',(-22.0000005960464,0.,0.));
#1387=CARTESIAN_POINT('',(-25.6366047020436,-3.05575041131378,0.));
#1388=CARTESIAN_POINT('',(-25.6366047020436,-3.05575041131378,0.));
#1389=CARTESIAN_POINT('Origin',(-22.0000005960464,0.,0.));
#1390=CARTESIAN_POINT('Origin',(-26.8615660851164,-4.08505581301949,0.));
#1391=CARTESIAN_POINT('',(-25.2615660851164,-4.08505581301949,0.));
#1392=CARTESIAN_POINT('',(-25.2615660851164,-4.08505581301949,0.));
#1393=CARTESIAN_POINT('Origin',(-26.8615660851164,-4.08505581301949,0.));
#1394=CARTESIAN_POINT('Origin',(-25.2615660851164,-4.73547152462224,0.));
#1395=CARTESIAN_POINT('',(-25.2615660851164,-4.73547152462224,1.6));
#1396=CARTESIAN_POINT('',(-25.2615660851164,-4.73547152462224,0.));
#1397=CARTESIAN_POINT('',(-25.2615660851164,-6.7438190009937,1.6));
#1398=CARTESIAN_POINT('',(-25.2615660851164,-2.23005955217636,1.6));
#1399=CARTESIAN_POINT('',(-25.2615660851164,-6.74381900099369,0.));
#1400=CARTESIAN_POINT('',(-25.2615660851164,-6.74381900099369,0.));
#1401=CARTESIAN_POINT('',(-25.2615660851164,-4.08505581301949,0.));
#1402=CARTESIAN_POINT('Ctrl Pts',(-25.2615660851164,-6.7438190009937,1.6));
#1403=CARTESIAN_POINT('Ctrl Pts',(-25.2615660851164,-6.7438190009937,1.63113774077177));
#1404=CARTESIAN_POINT('Ctrl Pts',(-25.2690775898372,-6.74225108823196,1.69382207385812));
#1405=CARTESIAN_POINT('Ctrl Pts',(-25.3266508551061,-6.73022814184438,1.84792125782042));
#1406=CARTESIAN_POINT('Ctrl Pts',(-25.4340524310838,-6.70774209359598,1.93996375515484));
#1407=CARTESIAN_POINT('Ctrl Pts',(-25.5576914152012,-6.68172874264495,1.99086993346199));
#1408=CARTESIAN_POINT('Ctrl Pts',(-25.6218970737664,-6.66818322506764,1.99927427392493));
#1409=CARTESIAN_POINT('Ctrl Pts',(-25.656246812362,-6.66092443081114,1.99997429990179));
#1410=CARTESIAN_POINT('Ctrl Pts',(-25.6589071078867,-6.66036219336304,2.));
#1411=CARTESIAN_POINT('Ctrl Pts',(-25.6615660851164,-6.65980015985857,2.));
#1412=CARTESIAN_POINT('Ctrl Pts',(-25.2615660851164,-6.8125679291024,1.6));
#1413=CARTESIAN_POINT('Ctrl Pts',(-25.2615660851164,-6.8125679291024,1.6400927554915));
#1414=CARTESIAN_POINT('Ctrl Pts',(-25.2739773445527,-6.80458620796954,1.72024753490142));
#1415=CARTESIAN_POINT('Ctrl Pts',(-25.3522917944833,-6.76386844346281,1.88503783069881));
#1416=CARTESIAN_POINT('Ctrl Pts',(-25.4590619943655,-6.72642327967199,1.95208928404549));
#1417=CARTESIAN_POINT('Ctrl Pts',(-25.5703887026297,-6.68926221739789,1.99417683122547));
#1418=CARTESIAN_POINT('Ctrl Pts',(-25.6267978630203,-6.67108240222003,1.99942229960577));
#1419=CARTESIAN_POINT('Ctrl Pts',(-25.656903308228,-6.66131281935348,1.99998263955397));
#1420=CARTESIAN_POINT('Ctrl Pts',(-25.6592354439238,-6.66055636284747,2.));
#1421=CARTESIAN_POINT('Ctrl Pts',(-25.6615660851164,-6.65980015985857,2.));
#1422=CARTESIAN_POINT('Ctrl Pts',(-25.3032344019799,-6.94947178606925,1.6));
#1423=CARTESIAN_POINT('Ctrl Pts',(-25.3032344019799,-6.94947178606925,1.65467084746712));
#1424=CARTESIAN_POINT('Ctrl Pts',(-25.3218179211498,-6.92875196449296,1.76310931462265));
#1425=CARTESIAN_POINT('Ctrl Pts',(-25.4204962462518,-6.83098573151188,1.94180555452913));
#1426=CARTESIAN_POINT('Ctrl Pts',(-25.5120282896803,-6.76370569439469,1.96920835860588));
#1427=CARTESIAN_POINT('Ctrl Pts',(-25.5959887127932,-6.704293825291,1.99913833749875));
#1428=CARTESIAN_POINT('Ctrl Pts',(-25.636585387697,-6.67687660187894,1.99962676902597));
#1429=CARTESIAN_POINT('Ctrl Pts',(-25.658217106972,-6.66208974841629,1.99999501453148));
#1430=CARTESIAN_POINT('Ctrl Pts',(-25.659892115998,-6.66094470181632,2.));
#1431=CARTESIAN_POINT('Ctrl Pts',(-25.6615660851164,-6.65980015985857,2.));
#1432=CARTESIAN_POINT('Ctrl Pts',(-25.4976317159072,-7.10969048277714,1.6));
#1433=CARTESIAN_POINT('Ctrl Pts',(-25.4976317159072,-7.10969048277714,1.66031599184743));
#1434=CARTESIAN_POINT('Ctrl Pts',(-25.5119933549519,-7.07970090434511,1.77966384889902));
#1435=CARTESIAN_POINT('Ctrl Pts',(-25.5762370199311,-6.93368013752299,1.9628023249843));
#1436=CARTESIAN_POINT('Ctrl Pts',(-25.611978789245,-6.82551137064645,1.97513801353225));
#1437=CARTESIAN_POINT('Ctrl Pts',(-25.641136275222,-6.73107160533279,2.00094666827654));
#1438=CARTESIAN_POINT('Ctrl Pts',(-25.6537231224427,-6.68703029755361,1.99969622210378));
#1439=CARTESIAN_POINT('Ctrl Pts',(-25.6605162456237,-6.66344902538659,1.99999948504954));
#1440=CARTESIAN_POINT('Ctrl Pts',(-25.6610412921278,-6.6616242950118,2.));
#1441=CARTESIAN_POINT('Ctrl Pts',(-25.6615660851164,-6.65980015985857,2.));
#1442=CARTESIAN_POINT('Ctrl Pts',(-25.6858932001041,-7.10104429963399,1.6));
#1443=CARTESIAN_POINT('Ctrl Pts',(-25.6858932001041,-7.10104429963399,1.64468343680275));
#1444=CARTESIAN_POINT('Ctrl Pts',(-25.6888166750836,-7.08250056700329,1.73378473777586));
#1445=CARTESIAN_POINT('Ctrl Pts',(-25.6958521521709,-6.97756704023655,1.90383785412825));
#1446=CARTESIAN_POINT('Ctrl Pts',(-25.685490746295,-6.86265108592644,1.9581391888687));
#1447=CARTESIAN_POINT('Ctrl Pts',(-25.6731037065809,-6.74993963752044,1.99584545054551));
#1448=CARTESIAN_POINT('Ctrl Pts',(-25.6659631261698,-6.69423070615869,1.99949585703592));
#1449=CARTESIAN_POINT('Ctrl Pts',(-25.6621583972931,-6.6644218390927,1.99998683921651));
#1450=CARTESIAN_POINT('Ctrl Pts',(-25.6618621322206,-6.66210971872287,2.));
#1451=CARTESIAN_POINT('Ctrl Pts',(-25.6615660851164,-6.65980015985858,2.));
#1452=CARTESIAN_POINT('Ctrl Pts',(-25.7768011074918,-7.05235973960107,1.6));
#1453=CARTESIAN_POINT('Ctrl Pts',(-25.7768011074918,-7.05235973960107,1.63113774077177));
#1454=CARTESIAN_POINT('Ctrl Pts',(-25.7747005541632,-7.04496384571788,1.69382207385815));
#1455=CARTESIAN_POINT('Ctrl Pts',(-25.7585656209202,-6.98828982377342,1.84792125782047));
#1456=CARTESIAN_POINT('Ctrl Pts',(-25.7280941679908,-6.88270515165349,1.93996375515517));
#1457=CARTESIAN_POINT('Ctrl Pts',(-25.6921955439567,-6.76147139989102,1.99086993346219));
#1458=CARTESIAN_POINT('Ctrl Pts',(-25.6733186050837,-6.6986060576245,1.99927427392565));
#1459=CARTESIAN_POINT('Ctrl Pts',(-25.6631431031665,-6.66500326169324,1.99997429990174));
#1460=CARTESIAN_POINT('Ctrl Pts',(-25.6623546362762,-6.66240097294951,2.));
#1461=CARTESIAN_POINT('Ctrl Pts',(-25.6615660851164,-6.65980015985858,2.));
#1462=CARTESIAN_POINT('',(-25.6615660851164,-6.65980015985858,2.));
#1463=CARTESIAN_POINT('Ctrl Pts',(-25.2615660851164,-6.7438190009937,1.6));
#1464=CARTESIAN_POINT('Ctrl Pts',(-25.2615660851164,-6.7438190009937,1.63113774077177));
#1465=CARTESIAN_POINT('Ctrl Pts',(-25.2690775898372,-6.74225108823196,1.69382207385812));
#1466=CARTESIAN_POINT('Ctrl Pts',(-25.3266508551061,-6.73022814184438,1.84792125782042));
#1467=CARTESIAN_POINT('Ctrl Pts',(-25.4340524310838,-6.70774209359598,1.93996375515484));
#1468=CARTESIAN_POINT('Ctrl Pts',(-25.5576914152012,-6.68172874264495,1.99086993346199));
#1469=CARTESIAN_POINT('Ctrl Pts',(-25.6218970737664,-6.66818322506764,1.99927427392493));
#1470=CARTESIAN_POINT('Ctrl Pts',(-25.656246812362,-6.66092443081114,1.99997429990179));
#1471=CARTESIAN_POINT('Ctrl Pts',(-25.6589071078867,-6.66036219336304,2.));
#1472=CARTESIAN_POINT('Ctrl Pts',(-25.6615660851164,-6.65980015985857,2.));
#1473=CARTESIAN_POINT('',(-25.7768011074918,-7.05235973960107,1.6));
#1474=CARTESIAN_POINT('Ctrl Pts',(-25.6615660851164,-6.65980015985858,2.));
#1475=CARTESIAN_POINT('Ctrl Pts',(-25.6623546362762,-6.66240097294951,2.));
#1476=CARTESIAN_POINT('Ctrl Pts',(-25.6631431031665,-6.66500326169324,1.99997429990174));
#1477=CARTESIAN_POINT('Ctrl Pts',(-25.6733186050837,-6.6986060576245,1.99927427392565));
#1478=CARTESIAN_POINT('Ctrl Pts',(-25.6921955439567,-6.76147139989102,1.99086993346219));
#1479=CARTESIAN_POINT('Ctrl Pts',(-25.7280941679908,-6.88270515165349,1.93996375515517));
#1480=CARTESIAN_POINT('Ctrl Pts',(-25.7585656209202,-6.98828982377342,1.84792125782047));
#1481=CARTESIAN_POINT('Ctrl Pts',(-25.7747005541632,-7.04496384571788,1.69382207385815));
#1482=CARTESIAN_POINT('Ctrl Pts',(-25.7768011074918,-7.05235973960107,1.63113774077177));
#1483=CARTESIAN_POINT('Ctrl Pts',(-25.7768011074918,-7.05235973960107,1.6));
#1484=CARTESIAN_POINT('Origin',(-25.6115660851162,-6.7438190009937,1.6));
#1485=CARTESIAN_POINT('Ctrl Pts',(-19.0196069276411,-7.42409951316179,1.6));
#1486=CARTESIAN_POINT('Ctrl Pts',(-19.0196069276411,-7.42409951316179,1.658498335636));
#1487=CARTESIAN_POINT('Ctrl Pts',(-19.0281479427218,-7.37971059930159,1.82627459248176));
#1488=CARTESIAN_POINT('Ctrl Pts',(-19.0524350838701,-7.25626218976654,1.93664660272594));
#1489=CARTESIAN_POINT('Ctrl Pts',(-19.0779505796072,-7.130913471874,1.99011628718164));
#1490=CARTESIAN_POINT('Ctrl Pts',(-19.0915546831741,-7.06525981670554,1.99923072632474));
#1491=CARTESIAN_POINT('Ctrl Pts',(-19.0988880034706,-7.03025349899157,1.99997519092757));
#1492=CARTESIAN_POINT('Ctrl Pts',(-19.0994435611211,-7.02760311869306,2.));
#1493=CARTESIAN_POINT('Ctrl Pts',(-19.0999991506338,-7.02495491918665,2.));
#1494=CARTESIAN_POINT('Ctrl Pts',(-19.0800066417776,-7.44834688824976,1.6));
#1495=CARTESIAN_POINT('Ctrl Pts',(-19.0800066417776,-7.44834688824976,1.67260385834508));
#1496=CARTESIAN_POINT('Ctrl Pts',(-19.0722978233874,-7.37414402804902,1.86448101435337));
#1497=CARTESIAN_POINT('Ctrl Pts',(-19.0796582382616,-7.24157298411143,1.94696674795809));
#1498=CARTESIAN_POINT('Ctrl Pts',(-19.0901734561205,-7.12296312601211,1.99321620781215));
#1499=CARTESIAN_POINT('Ctrl Pts',(-19.0962152019497,-7.06212613285057,1.99931507831733));
#1500=CARTESIAN_POINT('Ctrl Pts',(-19.0995006160998,-7.02984443379285,1.99998525673826));
#1501=CARTESIAN_POINT('Ctrl Pts',(-19.0997497913555,-7.02739823742904,2.));
#1502=CARTESIAN_POINT('Ctrl Pts',(-19.0999991506338,-7.02495491918665,2.));
#1503=CARTESIAN_POINT('Ctrl Pts',(-19.2142575629932,-7.46208355966487,1.6));
#1504=CARTESIAN_POINT('Ctrl Pts',(-19.2142575629932,-7.46208355966487,1.69524012665247));
#1505=CARTESIAN_POINT('Ctrl Pts',(-19.1676184709224,-7.34529150486957,1.92327255885297));
#1506=CARTESIAN_POINT('Ctrl Pts',(-19.1350488248085,-7.20976652531926,1.96101241739921));
#1507=CARTESIAN_POINT('Ctrl Pts',(-19.1146966813962,-7.10681233263373,1.9978647422722));
#1508=CARTESIAN_POINT('Ctrl Pts',(-19.1055249445109,-7.05588004442306,1.99941078409329));
#1509=CARTESIAN_POINT('Ctrl Pts',(-19.1007263868602,-7.02902519420805,2.00000081385703));
#1510=CARTESIAN_POINT('Ctrl Pts',(-19.1003622518241,-7.02698847490099,2.));
#1511=CARTESIAN_POINT('Ctrl Pts',(-19.0999991506338,-7.02495491918665,2.));
#1512=CARTESIAN_POINT('Ctrl Pts',(-19.4276545325266,-7.35824736609293,1.6));
#1513=CARTESIAN_POINT('Ctrl Pts',(-19.4276545325266,-7.35824736609293,1.70391737275186));
#1514=CARTESIAN_POINT('Ctrl Pts',(-19.3328120393349,-7.24672055360199,1.94512032951565));
#1515=CARTESIAN_POINT('Ctrl Pts',(-19.2316406401401,-7.14697584238177,1.96571559658919));
#1516=CARTESIAN_POINT('Ctrl Pts',(-19.1578943619025,-7.07800811201058,1.99955849387372));
#1517=CARTESIAN_POINT('Ctrl Pts',(-19.1218259003666,-7.04497578458811,1.99943674671419));
#1518=CARTESIAN_POINT('Ctrl Pts',(-19.1028712842619,-7.02758990909891,2.00000661649396));
#1519=CARTESIAN_POINT('Ctrl Pts',(-19.1014340576443,-7.02627139047691,2.));
#1520=CARTESIAN_POINT('Ctrl Pts',(-19.0999991506338,-7.02495491918664,2.));
#1521=CARTESIAN_POINT('Ctrl Pts',(-19.4999991506338,-7.19692269911792,1.6));
#1522=CARTESIAN_POINT('Ctrl Pts',(-19.4999991506338,-7.19692269911792,1.67981470930041));
#1523=CARTESIAN_POINT('Ctrl Pts',(-19.4226459292545,-7.1492657797496,1.88385522957273));
#1524=CARTESIAN_POINT('Ctrl Pts',(-19.2958991403142,-7.09762641973944,1.95208286893481));
#1525=CARTESIAN_POINT('Ctrl Pts',(-19.1882213050005,-7.05718951652263,1.99478014561837));
#1526=CARTESIAN_POINT('Ctrl Pts',(-19.1334481260425,-7.03718180592684,1.99935567595808));
#1527=CARTESIAN_POINT('Ctrl Pts',(-19.1044038067646,-7.02656466912443,1.99999036457797));
#1528=CARTESIAN_POINT('Ctrl Pts',(-19.1021996332302,-7.02575918731685,2.));
#1529=CARTESIAN_POINT('Ctrl Pts',(-19.0999991506338,-7.02495491918665,2.));
#1530=CARTESIAN_POINT('Ctrl Pts',(-19.4999991506338,-7.09929515946096,1.6));
#1531=CARTESIAN_POINT('Ctrl Pts',(-19.4999991506338,-7.09929515946096,1.658498335636));
#1532=CARTESIAN_POINT('Ctrl Pts',(-19.4556201301322,-7.09109417172385,1.8262745924817));
#1533=CARTESIAN_POINT('Ctrl Pts',(-19.3320610024009,-7.06819849312921,1.93664660272566));
#1534=CARTESIAN_POINT('Ctrl Pts',(-19.2063736701427,-7.04480792567955,1.99011628718146));
#1535=CARTESIAN_POINT('Ctrl Pts',(-19.1404778997441,-7.0325163737706,1.99923072632412));
#1536=CARTESIAN_POINT('Ctrl Pts',(-19.1053208639005,-7.02594913833274,1.99997519092763));
#1537=CARTESIAN_POINT('Ctrl Pts',(-19.1026589785817,-7.02545186542082,2.));
#1538=CARTESIAN_POINT('Ctrl Pts',(-19.0999991506338,-7.02495491918665,2.));
#1539=CARTESIAN_POINT('',(-19.0196069276411,-7.42409951316179,1.6));
#1540=CARTESIAN_POINT('',(-19.0999991506338,-7.02495491918665,2.));
#1541=CARTESIAN_POINT('Ctrl Pts',(-19.0196069276411,-7.42409951316179,1.6));
#1542=CARTESIAN_POINT('Ctrl Pts',(-19.0196069276411,-7.42409951316179,1.658498335636));
#1543=CARTESIAN_POINT('Ctrl Pts',(-19.0281479427218,-7.37971059930159,1.82627459248176));
#1544=CARTESIAN_POINT('Ctrl Pts',(-19.0524350838701,-7.25626218976654,1.93664660272594));
#1545=CARTESIAN_POINT('Ctrl Pts',(-19.0779505796072,-7.130913471874,1.99011628718164));
#1546=CARTESIAN_POINT('Ctrl Pts',(-19.0915546831741,-7.06525981670554,1.99923072632474));
#1547=CARTESIAN_POINT('Ctrl Pts',(-19.0988880034706,-7.03025349899157,1.99997519092757));
#1548=CARTESIAN_POINT('Ctrl Pts',(-19.0994435611211,-7.02760311869306,2.));
#1549=CARTESIAN_POINT('Ctrl Pts',(-19.0999991506338,-7.02495491918665,2.));
#1550=CARTESIAN_POINT('Ctrl Pts',(-19.0999991506338,-7.02495491918665,2.));
#1551=CARTESIAN_POINT('Ctrl Pts',(-19.1026589785817,-7.02545186542082,2.));
#1552=CARTESIAN_POINT('Ctrl Pts',(-19.1053208639005,-7.02594913833274,1.99997519092763));
#1553=CARTESIAN_POINT('Ctrl Pts',(-19.1404778997441,-7.0325163737706,1.99923072632412));
#1554=CARTESIAN_POINT('Ctrl Pts',(-19.2063736701427,-7.04480792567955,1.99011628718146));
#1555=CARTESIAN_POINT('Ctrl Pts',(-19.3320610024009,-7.06819849312921,1.93664660272566));
#1556=CARTESIAN_POINT('Ctrl Pts',(-19.4556201301322,-7.09109417172385,1.8262745924817));
#1557=CARTESIAN_POINT('Ctrl Pts',(-19.4999991506338,-7.09929515946096,1.658498335636));
#1558=CARTESIAN_POINT('Ctrl Pts',(-19.4999991506338,-7.09929515946096,1.6));
#1559=CARTESIAN_POINT('Origin',(-19.1499991506338,-7.09929515946095,1.6));
#1560=CARTESIAN_POINT('Origin',(-19.0999991506338,-2.28680766007424,1.6));
#1561=CARTESIAN_POINT('',(-19.0999991506338,-5.42332846290953,2.));
#1562=CARTESIAN_POINT('',(-19.0999991506338,-2.28680766007424,2.));
#1563=CARTESIAN_POINT('Ctrl Pts',(-19.0999991506338,-5.42332846290953,2.));
#1564=CARTESIAN_POINT('Ctrl Pts',(-19.1009418471342,-5.42276354004258,2.));
#1565=CARTESIAN_POINT('Ctrl Pts',(-19.1018845048623,-5.42219855214125,1.99999666746243));
#1566=CARTESIAN_POINT('Ctrl Pts',(-19.1366292159259,-5.40137083286919,1.99975102007922));
#1567=CARTESIAN_POINT('Ctrl Pts',(-19.1703651110105,-5.38103239872714,1.99522752939454));
#1568=CARTESIAN_POINT('Ctrl Pts',(-19.2356144051787,-5.34147719271749,1.97780025699934));
#1569=CARTESIAN_POINT('Ctrl Pts',(-19.2671594979701,-5.32224426048921,1.96500995981842));
#1570=CARTESIAN_POINT('Ctrl Pts',(-19.3402790722621,-5.27744032524766,1.92363472267631));
#1571=CARTESIAN_POINT('Ctrl Pts',(-19.3798315176294,-5.25299868644357,1.89059277205868));
#1572=CARTESIAN_POINT('Ctrl Pts',(-19.4405674195102,-5.21527578313824,1.81454106101338));
#1573=CARTESIAN_POINT('Ctrl Pts',(-19.4631825045194,-5.20114334353084,1.77411699627681));
#1574=CARTESIAN_POINT('Ctrl Pts',(-19.492576446533,-5.1827423876883,1.68825252843843));
#1575=CARTESIAN_POINT('Ctrl Pts',(-19.4999991506338,-5.17807809644995,1.64451414225366));
#1576=CARTESIAN_POINT('Ctrl Pts',(-19.4999991506338,-5.17807809644995,1.6));
#1577=CARTESIAN_POINT('Origin',(-22.0000005960464,0.,1.6));
#1578=CARTESIAN_POINT('Origin',(-22.0000005960464,0.,1.6));
#1579=CARTESIAN_POINT('',(-25.6615660851164,-4.94119804999275,2.));
#1580=CARTESIAN_POINT('Origin',(-22.0000005960464,0.,2.));
#1581=CARTESIAN_POINT('Ctrl Pts',(-25.6615660851164,-4.94119804999275,2.));
#1582=CARTESIAN_POINT('Ctrl Pts',(-25.6606226689473,-4.94072293660332,2.));
#1583=CARTESIAN_POINT('Ctrl Pts',(-25.659679280884,-4.9402477688417,1.99999666237226));
#1584=CARTESIAN_POINT('Ctrl Pts',(-25.626929556113,-4.9237499353025,1.9997649402759));
#1585=CARTESIAN_POINT('Ctrl Pts',(-25.5951986317071,-4.907686249722,1.99574648466463));
#1586=CARTESIAN_POINT('Ctrl Pts',(-25.5335371739893,-4.8763201997567,1.98027551447594));
#1587=CARTESIAN_POINT('Ctrl Pts',(-25.5036414827361,-4.8610370230828,1.96890494697052));
#1588=CARTESIAN_POINT('Ctrl Pts',(-25.4304947751444,-4.82347945893788,1.93039640290562));
#1589=CARTESIAN_POINT('Ctrl Pts',(-25.38972191537,-4.80237607960052,1.89809926054451));
#1590=CARTESIAN_POINT('Ctrl Pts',(-25.3256942722735,-4.76907682958665,1.82220370457166));
#1591=CARTESIAN_POINT('Ctrl Pts',(-25.3014794079513,-4.75640701198707,1.78079744834357));
#1592=CARTESIAN_POINT('Ctrl Pts',(-25.2696416456526,-4.73972015922743,1.69212524620206));
#1593=CARTESIAN_POINT('Ctrl Pts',(-25.2615660851164,-4.73547152462224,1.64642601844586));
#1594=CARTESIAN_POINT('Ctrl Pts',(-25.2615660851164,-4.73547152462224,1.6));
#1595=CARTESIAN_POINT('Origin',(-25.6615660851164,-2.23005955217636,1.6));
#1596=CARTESIAN_POINT('',(-25.6615660851164,-2.23005955217636,2.));
#1597=CARTESIAN_POINT('Origin',(-22.0000005960464,0.,1.6));
#1598=CARTESIAN_POINT('Origin',(-22.0000005960464,0.,2.));
#1599=CARTESIAN_POINT('Origin',(-22.0000005960464,0.,1.6));
#1600=CARTESIAN_POINT('Origin',(-25.6115660851162,-6.74381900099369,0.));
#1601=CARTESIAN_POINT('',(-25.7768011074918,-7.05235973960106,0.));
#1602=CARTESIAN_POINT('',(-25.7768011074918,-7.05235973960106,0.));
#1603=CARTESIAN_POINT('Origin',(-25.6115660851162,-6.74381900099369,0.));
#1604=CARTESIAN_POINT('Origin',(-22.0000005960464,0.,0.));
#1605=CARTESIAN_POINT('',(-19.0196069276411,-7.42409951316179,0.));
#1606=CARTESIAN_POINT('',(-19.0196069276411,-7.42409951316179,0.));
#1607=CARTESIAN_POINT('Origin',(-22.0000005960464,0.,0.));
#1608=CARTESIAN_POINT('Origin',(-19.1499991506338,-7.09929515946095,0.));
#1609=CARTESIAN_POINT('Origin',(-19.1499991506338,-7.09929515946095,0.));
#1610=CARTESIAN_POINT('Origin',(-22.0000005960464,0.275352420269519,2.));
#1611=CARTESIAN_POINT('Origin',(-22.0000005960464,0.,0.));
#1612=CARTESIAN_POINT('Origin',(-22.0000005960464,0.,0.7));
#1613=CARTESIAN_POINT('Origin',(-22.0000005960464,0.285960951775025,0.7));
#1614=CARTESIAN_POINT('Origin',(-22.0000005960464,0.285960951775025,0.));
#1615=UNCERTAINTY_MEASURE_WITH_UNIT(LENGTH_MEASURE(0.01),#1619,
'DISTANCE_ACCURACY_VALUE',
'Maximum model space distance between geometric entities at asserted c
onnectivities');
#1616=UNCERTAINTY_MEASURE_WITH_UNIT(LENGTH_MEASURE(0.01),#1619,
'DISTANCE_ACCURACY_VALUE',
'Maximum model space distance between geometric entities at asserted c
onnectivities');
#1617=(
GEOMETRIC_REPRESENTATION_CONTEXT(3)
GLOBAL_UNCERTAINTY_ASSIGNED_CONTEXT((#1615))
GLOBAL_UNIT_ASSIGNED_CONTEXT((#1619,#1621,#1622))
REPRESENTATION_CONTEXT('','3D')
);
#1618=(
GEOMETRIC_REPRESENTATION_CONTEXT(3)
GLOBAL_UNCERTAINTY_ASSIGNED_CONTEXT((#1616))
GLOBAL_UNIT_ASSIGNED_CONTEXT((#1619,#1621,#1622))
REPRESENTATION_CONTEXT('','3D')
);
#1619=(
LENGTH_UNIT()
NAMED_UNIT(*)
SI_UNIT(.MILLI.,.METRE.)
);
#1620=(
LENGTH_UNIT()
NAMED_UNIT(*)
SI_UNIT($,.METRE.)
);
#1621=(
NAMED_UNIT(*)
PLANE_ANGLE_UNIT()
SI_UNIT($,.RADIAN.)
);
#1622=(
NAMED_UNIT(*)
SI_UNIT($,.STERADIAN.)
SOLID_ANGLE_UNIT()
);
#1623=SHAPE_DEFINITION_REPRESENTATION(#1624,#1625);
#1624=PRODUCT_DEFINITION_SHAPE('',$,#1627);
#1625=SHAPE_REPRESENTATION('',(#723),#1617);
#1626=PRODUCT_DEFINITION_CONTEXT('part definition',#1631,'design');
#1627=PRODUCT_DEFINITION('flook32_pipe_clamp','flook32_pipe_clamp v21',
#1628,#1626);
#1628=PRODUCT_DEFINITION_FORMATION('',$,#1633);
#1629=PRODUCT_RELATED_PRODUCT_CATEGORY('flook32_pipe_clamp v21',
'flook32_pipe_clamp v21',(#1633));
#1630=APPLICATION_PROTOCOL_DEFINITION('international standard',
'automotive_design',2009,#1631);
#1631=APPLICATION_CONTEXT(
'Core Data for Automotive Mechanical Design Process');
#1632=PRODUCT_CONTEXT('part definition',#1631,'mechanical');
#1633=PRODUCT('flook32_pipe_clamp','flook32_pipe_clamp v21',$,(#1632));
#1634=PRESENTATION_STYLE_ASSIGNMENT((#1635));
#1635=SURFACE_STYLE_USAGE(.BOTH.,#1636);
#1636=SURFACE_SIDE_STYLE('',(#1637));
#1637=SURFACE_STYLE_FILL_AREA(#1638);
#1638=FILL_AREA_STYLE('Steel - Satin',(#1639));
#1639=FILL_AREA_STYLE_COLOUR('Steel - Satin',#1640);
#1640=COLOUR_RGB('Steel - Satin',0.627450980392157,0.627450980392157,0.627450980392157);
ENDSEC;
END-ISO-10303-21;
